<svg xmlns="http://www.w3.org/2000/svg">
<defs>
<font id="System" horiz-adv-x="1139" >
  <font-face 
    font-family="System"
    font-weight="400"
    font-stretch="normal"
    units-per-em="2048"
    panose-1="2 0 0 0 0 0 0 0 0 0"
    ascent="1638"
    descent="-410"
    x-height="907"
    cap-height="1228"
    bbox="10 -433 1095 1641"
    underline-thickness="150"
    underline-position="-142"
    unicode-range="U+0020-U+F005"
  />
<missing-glyph horiz-adv-x="993" 
d="M331 1641h15l16 -8v-96l-16 -8h-15l-15 8v96zM408 1633h99l15 -8v-96l-15 -8h-99l-16 8v96zM240 1620h31l15 -8v-96q0 -8 -46 -8v-1068q46 0 46 -8v-112l-15 -8h-31l-15 8v1292zM591 1625l8 -4v-100l-16 -8l-7 4v100zM652 1625h84l15 -8v-1292l-15 -8h-84l-15 8v112l15 8
h69v1068h-69l-15 8v96zM797 1597h39l15 -8v-1288l-15 -8h-39l-15 8v1288zM184 1620l14 -4v-1296l-28 -8l-14 4v1296zM331 461h15l16 -8v-112l-16 -8h-15l-15 8v112zM430 461h100l15 -8v-112l-15 -8h-100l-15 8v112zM591 461l8 -4v-116l-16 -8l-7 4v116zM118 256h8l30 -16
v-72h-15v20q0 10 -31 12l-7 4v44zM65 252h15v-4l-8 -72l8 -88v-4h-15q-23 43 -23 72v16q0 45 23 80zM515 237h15v-304h-15v184l-16 12v40l16 12v56zM392 177h8v-36l-15 -32v-4l15 -32v-52h-8q-27 3 -38 80q15 76 38 76zM446 177l15 -24v-52h-15l-16 36v32zM553 177h15l15 -8
v-40l-15 -8h-15v56zM675 149h8l23 -12v-120l-16 -8l-15 8v132zM920 149q30 -15 30 -52v-180l-15 -8l-15 8v160l-8 28q-29 0 -31 -32h-15v20q0 39 54 56zM637 141h15v-124l-15 -8h-8v112zM820 133l8 -4v-28q-38 -17 -38 -56v-148h-39v232h23q16 0 16 -20h7q5 24 23 24z
M103 124h7q46 -14 46 -36v-56h-15l-38 28v64zM836 129h15l7 -20v-208l-15 -8l-7 4v232zM331 125h15v-20h-15v20zM225 116l15 -8v-112h-15l-15 116l7 4h8zM469 121h15v-12h-15v12zM301 117h15v-72l-15 -128h-16v48zM713 101h16v-4l7 -88l-7 -4h-8l-8 4v92zM606 85h16v-132
h-16v132zM430 65h8q23 -4 23 -24v-60h-15l-16 32v52zM179 32h16v-68h-16v68zM49 28q21 0 31 -72v-36h-15q-31 49 -31 104l8 4h7zM248 24h15v-12l16 -76v-76l-16 -48h-15v4l8 72l-8 92v44zM469 29h15v-92h-15v92zM377 -15h8v-8l15 -44v-32h-8q-27 5 -38 76zM629 -19h15l8 -60

<glyph glyph-name=".notdef" horiz-adv-x="993" 
d="M331 1641h15l16 -8v-96l-16 -8h-15l-15 8v96zM408 1633h99l15 -8v-96l-15 -8h-99l-16 8v96zM240 1620h31l15 -8v-96q0 -8 -46 -8v-1068q46 0 46 -8v-112l-15 -8h-31l-15 8v1292zM591 1625l8 -4v-100l-16 -8l-7 4v100zM652 1625h84l15 -8v-1292l-15 -8h-84l-15 8v112l15 8
h69v1068h-69l-15 8v96zM797 1597h39l15 -8v-1288l-15 -8h-39l-15 8v1288zM184 1620l14 -4v-1296l-28 -8l-14 4v1296zM331 461h15l16 -8v-112l-16 -8h-15l-15 8v112zM430 461h100l15 -8v-112l-15 -8h-100l-15 8v112zM591 461l8 -4v-116l-16 -8l-7 4v116zM118 256h8l30 -16
v-72h-15v20q0 10 -31 12l-7 4v44zM65 252h15v-4l-8 -72l8 -88v-4h-15q-23 43 -23 72v16q0 45 23 80zM515 237h15v-304h-15v184l-16 12v40l16 12v56zM392 177h8v-36l-15 -32v-4l15 -32v-52h-8q-27 3 -38 80q15 76 38 76zM446 177l15 -24v-52h-15l-16 36v32zM553 177h15l15 -8
v-40l-15 -8h-15v56zM675 149h8l23 -12v-120l-16 -8l-15 8v132zM920 149q30 -15 30 -52v-180l-15 -8l-15 8v160l-8 28q-29 0 -31 -32h-15v20q0 39 54 56zM637 141h15v-124l-15 -8h-8v112zM820 133l8 -4v-28q-38 -17 -38 -56v-148h-39v232h23q16 0 16 -20h7q5 24 23 24z
M103 124h7q46 -14 46 -36v-56h-15l-38 28v64zM836 129h15l7 -20v-208l-15 -8l-7 4v232zM331 125h15v-20h-15v20zM225 116l15 -8v-112h-15l-15 116l7 4h8zM469 121h15v-12h-15v12zM301 117h15v-72l-15 -128h-16v48zM713 101h16v-4l7 -88l-7 -4h-8l-8 4v92zM606 85h16v-132
h-16v132zM430 65h8q23 -4 23 -24v-60h-15l-16 32v52zM179 32h16v-68h-16v68zM49 28q21 0 31 -72v-36h-15q-31 49 -31 104l8 4h7zM248 24h15v-12l16 -76v-76l-16 -48h-15v4l8 72l-8 92v44zM469 29h15v-92h-15v92zM377 -15h8v-8l15 -44v-32h-8q-27 5 -38 76zM629 -19h15l8 -60
v-12h-15l-8 20v52zM141 -28h15v-60l-30 -16h-8l-15 8v44q0 7 38 12v12zM446 -31h15v-48q0 -20 -23 -24h-8v44q16 10 16 28zM690 -31h16v-52l-23 -12l-8 4v36zM713 -31h16v-28h-16v28zM553 -43h7l23 -4v-44l-23 -12l-7 4v56zM225 -140l15 -8v-32l-15 -8l-15 44l7 4h8z" />
    <glyph glyph-name=".null" horiz-adv-x="0" 
 />
    <glyph glyph-name="nonmarkingreturn" horiz-adv-x="569" 
 />
    <glyph glyph-name="space" unicode=" " horiz-adv-x="569" 
 />
    <glyph glyph-name="space" unicode="&#xa0;" horiz-adv-x="569" 
 />
    <glyph glyph-name="exclam" unicode="!" horiz-adv-x="272" 
d="M184 1464h42l7 -7v-275q-37 -839 -45 -839h-4l-7 7v1107zM31 1464h63l7 -7v-1110l-7 -7h-18q-13 0 -28 393q-24 345 -24 456v268zM142 1464h32l7 -7v-1110l-7 -7h-32l-7 7v1110zM184 246h35l7 -7v-278l-7 -7h-35l-7 7v278zM41 242h53l7 -7v-278l-7 -7h-53l-7 7v278z
M142 242h32l7 -7v-278l-7 -7h-32l-7 7v278z" />
    <glyph glyph-name="quotedbl" unicode="&#x22;" horiz-adv-x="402" 
d="M28 1164h47l3 -3v-355l-3 -3h-37q-6 0 -13 108v250zM97 1164h52l1 -2h2l-18 -357l-2 -2h-35l-3 3v355zM214 1164h64l4 -3v-355l-4 -3h-41q-6 0 -26 205v153zM291 1164h10l3 -3v-355l-3 -3h-10l-3 3v355zM333 1164h30l4 -3q-16 -358 -20 -358h-14l-3 3v355zM14 1162h3
l4 -3v-241h-4v2l-6 85v154z" />
    <glyph glyph-name="numbersign" unicode="#" horiz-adv-x="743" 
d="M280 1345h84l5 -4h5l-37 -368h63l11 -8v-1044l-11 -8h-52l-11 8l37 364h-110q-31 -372 -47 -372l-11 8v1044q0 8 21 8l37 364zM557 1289h84l11 -8l-37 -360h58l10 -8v-192l-10 -8h-79l-26 -276h105l10 -8v-192l-10 -8h-131l-21 -248h-11v916l32 384zM58 981h63l11 -8
v-192l-11 -8h-63l-10 8v192zM163 961h5l11 -8v-188l-11 -8h-5l-10 8v188zM442 941h11l10 -8v-1044l-10 -8h-11l-10 8v1044zM168 673h11v-764l-11 -8h-5l-10 8v540zM58 493h63l11 -8v-560l-11 -8h-36l-11 8l37 364h-53l-10 8v188z" />
    <glyph glyph-name="dollar" unicode="$" horiz-adv-x="544" 
d="M258 1344h40l9 -7v-104q51 -8 90 -60v-225q-3 -10 -36 -10q0 60 -50 121h-4v-309q37 -11 90 -64v-567q0 -27 -90 -74v-137l-9 -7h-40l-9 7v141q-18 0 -18 6v192h9q0 -10 9 -10v325l-18 17v644q0 9 18 10v104zM204 1257l9 -7v-634h-4l-14 10v624zM168 1247h5v-618h-5
q-103 99 -103 252v128q0 152 103 238zM410 1139h9l13 -43v-158q0 -5 -18 -10l-4 3v208zM468 1099h9q23 -85 23 -131l4 -3q-19 -10 -36 -10v144zM410 656h9l13 -27v-486l-13 -37h-9v550zM468 636h9q40 -97 40 -211v-31q0 -111 -40 -221h-9v463zM146 438l27 -121v-218h-5
q-58 29 -98 158l-5 30v131q0 8 81 20zM48 429l9 -7v-114h-9l-13 114zM195 310h9l9 -26v-192l-9 -6l-9 10v214z" />
    <glyph glyph-name="percent" unicode="%" horiz-adv-x="1140" 
d="M739 1343h70l17 -8l-191 -652h-18v292q90 368 122 368zM225 1245h8q70 0 70 -32v-628q-11 -36 -78 -36q-56 10 -61 20v660q14 16 61 16zM120 1217h18v-636h-18q-87 94 -87 288v56q0 190 87 292zM320 1217h18l17 -36v-572l-17 -28h-18v636zM414 1219q52 -106 52 -264v-36
q0 -148 -52 -256h-18v556h18zM588 863h17v-288l-191 -676h-18v300zM877 611l9 -4v-684l-18 -8h-17q-174 0 -174 348t200 348zM938 575h17v-672h-17v672zM981 575h18q96 -85 96 -284v-96q0 -192 -96 -276h-18v656zM333 141h17v-280l-17 -8h-61l-18 8z" />
    <glyph glyph-name="ampersand" unicode="&#x26;" horiz-adv-x="514" 
d="M261 866q39 0 72 -44v-172q0 -15 -50 -56q50 -88 50 -102v-181q-41 -47 -72 -47h-11v599zM206 877h11l11 -3v-599l-11 -4h-11l-11 4v599zM173 860h6v-599l-6 -1v-2q-63 0 -100 62v220q0 18 61 70q-44 83 -44 124q13 111 83 126zM338 816h11l17 -66v-32q0 -30 -17 -65h-11
v163zM405 552h5q45 -10 45 -15q0 -45 -34 -119q17 -25 67 -65l-45 -82h-5q-15 0 -33 28v253zM366 547h17v-248h-12q-9 22 -22 22v-7h-11v176h11v-5h6zM51 553h11v-211h-11q-22 50 -22 80v39q0 37 22 92z" />
    <glyph glyph-name="quotesingle" unicode="'" horiz-adv-x="212" 
d="M103 1187h11l4 -4v-377l-4 -4h-11l-4 4v377zM66 1175h14l4 -5v-377l-4 -4h-14l-5 4v377zM29 1170h29l4 -4v-377l-4 -4h-6q-8 0 -27 222v159zM139 1164h35l2 -2h2l-2 -2v-2q-15 -377 -19 -377h-18l-5 4v375z" />
    <glyph glyph-name="parenleft" unicode="(" horiz-adv-x="250" 
d="M179 1274h56l8 -8q-92 -375 -92 -660q0 -309 92 -668l-4 -4h-60q-17 0 -56 164v1020q34 139 56 156zM77 1078h8v-952h-8q-60 268 -60 480q0 227 60 472z" />
    <glyph glyph-name="parenright" unicode=")" horiz-adv-x="281" 
d="M87 1245q13 -17 48 -128l11 -53v-923q0 -29 -53 -184l-3 -3h-61l-6 6q87 322 87 657q0 273 -87 626l3 2h61zM148 1040l14 -78v-758l-14 -75h-6v911h6zM190 965h5q17 -90 17 -115v-526l-17 -114h-5v755zM229 819h5l14 -226l-14 -232h-5v458z" />
    <glyph glyph-name="asterisk" unicode="*" horiz-adv-x="535" 
d="M207 1171h92l3 -3h3l-16 -278h3l29 24h5v-146q0 -5 -8 -5l8 -32v-265h-5q-66 206 -72 206q-18 -67 -77 -233h-2q-14 7 -14 21v234q0 12 37 66q-37 10 -37 16v167h3q50 -45 50 -53h6q-14 140 -14 262v14zM55 1009q31 -16 77 -63v-170h-2q-109 44 -109 56zM474 1001
l34 -185l-58 -24l-3 2v186zM445 977l3 -2v-183q0 -6 -48 -19l-2 3v162zM384 938l3 -3v-159q0 -8 -29 -11v149zM358 731h5l24 -56v-196q0 -13 -24 -35l-5 16v271zM127 691h5v-231h-2q-67 86 -67 96t64 135zM398 670h5l45 -101v-35q-38 -49 -48 -55h-2v191zM453 566l5 -18
q-5 0 -5 -8h-6v26h6z" />
    <glyph glyph-name="plus" unicode="+" horiz-adv-x="665" 
d="M246 1062h32l10 -11v-906l-10 -10h-32l-11 10v338h-139l-11 11v214l11 11h139v332zM315 1067l6 -5v-906l-11 -11l-5 6v905zM353 1051h32l11 -11v-332h64l11 -11v-214l-11 -11h-64v-337l-11 -11h-32l-11 11v905zM567 719h54l10 -11v-214l-10 -11h-54l-11 11v214zM53 720
h21l11 -11v-214l-11 -11h-21l-11 11v214zM503 708h21l11 -11v-214l-11 -11h-21l-11 11v214z" />
    <glyph glyph-name="comma" unicode="," horiz-adv-x="194" 
d="M90 190h12l4 -3v-311q0 -7 -18 -23h-1v334zM22 181h49l3 -3v-336q-30 -33 -43 -33l-21 67q61 34 61 120v12h-49l-3 3v167zM139 175h26l3 -2v-114q0 -141 -29 -188h-4v302zM132 169h3v-309h-3v309z" />
    <glyph glyph-name="hyphen" unicode="-" horiz-adv-x="393" 
d="M89 701h19l3 -3v-235l-3 -3h-19l-4 3v235zM28 708h19l3 -3v-235l-3 -3h-19l-3 3v235zM122 693h141l3 -3v-237l-3 -3h-141l-3 3v237zM285 685h61l3 -3v-236l-3 -4h-61l-3 4v236z" />
    <glyph glyph-name="hyphen" unicode="&#xad;" horiz-adv-x="393" 
d="M89 701h19l3 -3v-235l-3 -3h-19l-4 3v235zM28 708h19l3 -3v-235l-3 -3h-19l-3 3v235zM122 693h141l3 -3v-237l-3 -3h-141l-3 3v237zM285 685h61l3 -3v-236l-3 -4h-61l-3 4v236z" />
    <glyph glyph-name="period" unicode="." horiz-adv-x="233" 
d="M37 189h10l4 -3v-181l-4 -3h-10l-4 3v181zM63 189h48l3 -3v-181l-3 -3h-48l-4 3v181zM130 188h56l4 -3v-182l-4 -3h-56l-4 3v182z" />
    <glyph glyph-name="slash" unicode="/" horiz-adv-x="358" 
d="M281 1195h44l2 -3h3l-49 -370h-5v368zM252 1184l5 -5v-383q-2 -50 -98 -765h-5v612q0 36 72 541h26zM123 651h5v-602l-5 -5h-39l-5 5v239zM50 244h5v-231l-5 -5h-24l-5 5z" />
    <glyph glyph-name="zero" unicode="0" horiz-adv-x="587" 
d="M222 1151l4 -4v-1160l-4 -4v-4q-16 6 -24 20v1136q0 7 24 16zM310 1195h8q125 0 168 -184v-820q-52 -184 -152 -184h-24q-29 0 -32 12v1164q3 12 32 12zM162 1135l4 -4v-1132h-8q-64 51 -92 168q-36 136 -36 408v36q0 427 132 524zM510 1007h8q36 -172 36 -356v-108
q0 -173 -36 -348h-8v812z" />
    <glyph glyph-name="one" unicode="1" horiz-adv-x="419" 
d="M267 1248l3 -3v-1209l-6 -6h-19l-6 6v870q-7 0 -10 -15h-6v230q28 74 41 127h3zM304 1248h84l6 -6v-1206l-6 -6h-84l-6 6v1206zM204 1118h7v-230q-28 -53 -125 -134l-3 3v202q108 112 121 159zM50 942v-205l-19 -16l-6 7v196q12 18 25 18z" />
    <glyph glyph-name="two" unicode="2" horiz-adv-x="592" 
d="M285 1198q72 -6 72 -21v-227h-7q0 44 -65 62h-7q-71 0 -83 -135l-7 -48q-38 3 -38 14v289q53 66 135 66zM392 1134q26 -13 34 -27v-642l-31 -58h-7v300l10 103l-10 100v217l4 4v3zM474 1131h4q93 -97 93 -276q0 -163 -90 -352h-7v628zM119 1126h4v-283l-4 -4v-3
q-73 10 -79 17q6 124 52 235zM350 757h7v-304l-86 -159q-28 -52 -28 -69h107l7 -6v-197l-7 -7h-193l-7 7v341q23 58 169 311q31 62 31 83zM116 353h7v-331l-7 -7h-83l-4 4h-3q7 156 86 327l4 4v3zM481 207h83l7 -7v-197l-7 -6h-83l-7 6v197zM395 179h24l7 -7v-193l-7 -7h-24
l-7 7v193z" />
    <glyph glyph-name="three" unicode="3" horiz-adv-x="596" 
d="M255 1157q51 0 51 -15v-198h-10q0 23 -46 30q-67 0 -86 -152l-5 -5h-5q-31 10 -31 20v249q54 71 132 71zM336 1111q21 -7 31 -25v-685h-10l-26 76v218l16 117l-16 101v188l5 5v5zM418 1081h5q96 -107 96 -259q0 -132 -96 -248q52 0 101 -132v-300q0 -75 -101 -182h-5
v1121zM98 1076h10v-244h-5q-66 10 -66 26q18 150 61 218zM301 731h5v-223h-5l-41 15l-55 -10q10 177 25 177q41 0 71 41zM557 429l10 -111v-10l-10 -127h-11v248h11zM159 310q22 -148 71 -163q0 -10 25 -10q19 0 46 21h5v-188q-5 -15 -30 -15h-41q-54 0 -112 71v269
q0 10 36 15zM103 300l5 -5v-259h-10q-71 138 -71 243q14 10 76 21zM357 203h10v-248q0 -10 -36 -20v192z" />
    <glyph glyph-name="four" unicode="4" horiz-adv-x="609" 
d="M424 1142h38l11 -11v-734l11 -17v-179l-11 -16v-223l-11 -11h-38l-11 11v1169zM337 1120l11 -11v-1169l-11 -11h-11l-11 11v228h-27l-11 11v789q42 152 60 152zM375 1120l11 -11v-1169l-11 -11l-11 11v1169zM239 990h11v-778l-11 -11h-212l-11 11v163q11 49 223 615z
M533 414h43l11 -10v-180l-11 -11h-43l-11 11v180z" />
    <glyph glyph-name="five" unicode="5" horiz-adv-x="553" 
d="M196 1255h15l8 -6v-204q0 -6 -15 -6l-8 -116h-8v326zM164 1231l8 -5v-583l-35 -64h-8l-90 25q59 608 66 627h59zM251 1238h109l8 -5v-205l-8 -5h-109l-8 5v205zM451 1233h35l8 -6v-204l-8 -6h-35l-8 6v204zM392 1210h8l7 -5v-205l-7 -5h-8l-8 5v205zM215 854h4v-169
l-27 -19h-4v166zM286 854q48 0 82 -39v-732q-32 -58 -110 -58h-7l-8 6v176l4 3v3l4 -3h27q59 38 59 94q16 49 16 149q0 166 -63 210q-9 6 -43 6l-4 3v168q0 10 43 14zM384 782h8l15 -28v-665l-15 -31h-8v724zM443 771h8q70 -131 70 -315v-22q0 -172 -70 -321h-8v658z
M137 372l35 -130v-210h-4q-64 23 -110 141q-31 100 -31 174zM196 263q0 -11 23 -31v-182l-8 -6q-23 7 -23 11v208h8z" />
    <glyph glyph-name="six" unicode="6" horiz-adv-x="604" 
d="M260 1282l4 -3v-187l-16 -36h-8v213q2 7 20 13zM180 1234h4v-216q-40 -125 -40 -297q6 0 32 52h8v-749l-8 -6q-152 113 -152 555v17q0 550 156 644zM332 1246q40 0 60 -23v-258h-8q0 58 -48 88h-16q-13 0 -28 -10h-4v193q0 10 44 10zM412 1223h4l12 -10v-287l-8 -7l-8 7
v297zM472 1204h4q23 -9 63 -115q20 -95 20 -140l4 -4l-87 -23l-4 4v278zM260 834l4 -3v-781l-8 -7l-16 10v762zM324 808h28q37 -7 40 -16v-772q-31 -26 -64 -26h-16q-21 0 -24 10v788q0 9 36 16zM412 788h4l12 -9v-746l-12 -10h-4v765zM472 769h4q99 -117 99 -360
q0 -235 -95 -366h-8v726z" />
    <glyph glyph-name="seven" unicode="7" horiz-adv-x="587" 
d="M445 1213h106l6 -7v-152q-112 -248 -112 -292h-6v444zM39 1214h136l6 -7v-200l-6 -7h-136l-7 7v200zM219 1194h139l7 -7v-520q-78 -359 -78 -475q-11 -56 -11 -176v-24l-6 -7h-51l-7 7v506q12 150 146 478h-139l-7 7v204zM391 1176l7 -7v-455l-7 -44h-7v499zM175 498h6
v-486l-6 -7h-45q-6 0 -6 11q0 201 51 482z" />
    <glyph glyph-name="eight" unicode="8" horiz-adv-x="617" 
d="M263 1235h27l20 -20v-1253l-20 -20h-7q-73 10 -73 27v1246q4 20 53 20zM390 1212q64 -28 86 -67v-480l-26 -33v-7q26 -3 26 -20v-606q-55 -66 -100 -66l-6 6v1259q0 14 20 14zM183 1188v-1239l-7 -7v-6q-147 86 -153 346v33q0 193 113 307q-100 90 -100 266
q0 197 120 294zM496 1152h14q53 -127 53 -233q0 -129 -60 -214h-7v447zM496 612h7q80 -86 80 -267q0 -176 -73 -306h-14v573z" />
    <glyph glyph-name="nine" unicode="9" horiz-adv-x="583" 
d="M260 1185h88q49 0 109 -129v-972q-55 -156 -153 -156h-22q-38 0 -44 16v216h15q0 -34 58 -38q76 0 88 329v16h-8q0 -49 -80 -97h-51l-22 16v783zM209 1142h8v-777h-8q-43 25 -43 54v685q30 38 43 38zM107 1099h15v-653h-15q-36 67 -36 108v431q0 36 36 114zM486 1039h15
q58 -206 58 -458q0 -262 -58 -491h-15v949zM39 999h14v-400h-14l-15 157v92zM114 241l8 -6v-237h-15q-36 80 -36 129v98q0 10 43 16zM202 235q15 -24 15 -70v-242h-8q-43 19 -43 48v248q0 9 36 16zM46 260l7 -6v-70h-14v16l-8 54l8 6h7z" />
    <glyph glyph-name="colon" unicode=":" horiz-adv-x="268" 
d="M56 1011h38l7 -6v-224l-7 -7h-38l-6 7v224zM218 1011h3l6 -6v-227l-6 -7h-3l-7 7v227zM129 1005h32l6 -6v-228l-6 -6h-32l-6 6v228zM180 1005h9l6 -6v-228l-6 -6h-9l-7 6v228zM56 348h38l7 -7v-224l-7 -6h-38l-6 6v224zM218 345h3l6 -7v-224l-6 -7h-3l-7 7v224zM129 338
h32l6 -6v-228l-6 -6h-32l-6 6v228zM180 338h9l6 -6v-228l-6 -6h-9l-7 6v228z" />
    <glyph glyph-name="semicolon" unicode=";" horiz-adv-x="281" 
d="M219 996h13l7 -6v-229l-7 -7h-13l-7 7v229zM62 1008h85l6 -7v-228l-6 -7h-85l-6 7v228zM190 1001l4 -3v-232l-7 -7l-3 4v232zM62 339h85l6 -7v-420q-22 -49 -77 -91q-8 0 -27 95q74 43 74 181h-61l-6 6v229zM219 327h13l7 -7v-141q0 -153 -20 -235h-7v376zM190 332l4 -3
v-393l-4 -17h-6v406z" />
    <glyph glyph-name="semicolon" unicode="&#x37e;" horiz-adv-x="281" 
d="M219 996h13l7 -6v-229l-7 -7h-13l-7 7v229zM62 1008h85l6 -7v-228l-6 -7h-85l-6 7v228zM190 1001l4 -3v-232l-7 -7l-3 4v232zM62 339h85l6 -7v-420q-22 -49 -77 -91q-8 0 -27 95q74 43 74 181h-61l-6 6v229zM219 327h13l7 -7v-141q0 -153 -20 -235h-7v376zM190 332l4 -3
v-393l-4 -17h-6v406z" />
    <glyph glyph-name="less" unicode="&#x3c;" horiz-adv-x="544" 
d="M498 967l10 -10v-183l-96 -71l-5 5v183q22 29 91 76zM361 879h4v-174l-24 -24l-5 5v174zM303 835l5 -5v-169l-140 -102v-4q105 -67 140 -102v-164l-10 -10l-179 145v266q13 18 184 145zM80 705h10v-256h-5q-33 17 -58 48v160q6 14 53 48zM407 433h5q67 -40 96 -71v-193
h-5q-77 52 -96 76v188zM346 473l19 -24v-174h-4l-25 19v169z" />
    <glyph glyph-name="equal" unicode="=" horiz-adv-x="548" 
d="M403 820h93l7 -5v-168l-7 -5h-93l-7 5v168zM374 820h23l7 -5v-168l-7 -5h-23l-7 5v168zM50 808h246l5 -5v-168l-5 -5h-246l-5 5v168zM318 793h22l5 -5v-171l-5 -4h-22l-5 4v171zM403 512h93l7 -4v-171l-7 -5h-93l-7 5v171zM374 512h23l7 -4v-171l-7 -5h-23l-7 5v171z
M50 500h246l5 -5v-170l-5 -5h-246l-5 5v170zM318 486h22l5 -5v-171l-5 -5h-22l-5 5v171z" />
    <glyph glyph-name="greater" unicode="&#x3e;" horiz-adv-x="540" 
d="M41 965h3q53 -38 76 -61v-195h-5l-74 55v201zM157 912h3l179 -142v-177l-6 -5l-176 129v195zM357 738h3q77 -58 84 -69v-258q-6 -9 -84 -68h-3v182q0 6 19 13v2l-19 19v179zM443 672l10 -10v-238l-10 -10l-3 3v255h3zM472 659h5q37 -27 37 -32v-168q-32 -32 -42 -32v232z
M333 551h6v-182l-177 -142h-5v195q17 17 176 129zM115 411h5v-197l-76 -61h-3v203z" />
    <glyph glyph-name="question" unicode="?" horiz-adv-x="717" 
d="M344 1326h16l12 -12v-184l-4 -4v-4l-28 4q-47 0 -92 -48h-4v224q3 19 100 24zM388 1322q44 -8 44 -20v-212h-4l-48 36v188zM204 1302h8v-232q-48 -127 -48 -176h-8q-101 20 -128 32q0 169 112 324zM492 1266q17 -5 24 -20v-252h-8l-24 48v216zM513 1250l24 -20v-668
l-20 -48h-8v296l8 96v4l-8 96v244h4zM565 1250q116 -137 116 -328q0 -175 -120 -336h-4v656zM508 810h8v-308l-24 -40h-8v288zM428 782h4v-292q-28 -69 -28 -156v-40l-8 -8h-8l-8 8v420zM368 702h4v-408l-8 -8h-92l-8 8v88q0 195 104 320zM272 194h92l8 -8v-248l-8 -8h-92
l-8 8v248zM388 194h20l8 -8v-248l-8 -8h-20l-8 8v248z" />
    <glyph glyph-name="at" unicode="@" horiz-adv-x="976" 
d="M509 1331h21q127 0 204 -117v-132h-22q-61 110 -182 110h-53v128zM407 1327l11 -3v-128l-32 -11h-11v131zM343 1313h10v-125q-139 -104 -150 -179h-21v143q27 91 161 161zM777 1185h21l22 -63v-157h-22v4l-21 87v129zM830 1152h22q64 -180 64 -337v-95q0 -140 -64 -330
h-22v136l22 234v33l-22 234v125zM139 1100h22v-135q-65 -261 -65 -432q0 -153 65 -381v-135h-22q-107 219 -107 509v55q0 267 107 519zM498 1023q48 0 86 -95h10v55q7 22 33 22h53l22 -7l-65 -630l11 -11h21q43 42 43 62h22v-135q-49 -84 -140 -84q-53 18 -53 66v11h-22
l-21 -44h-21v783zM407 1023l11 -3v-791q0 -19 -32 -22l-11 4v791q7 21 32 21zM332 1002h21v-795h-21q-115 0 -139 315q0 294 139 480zM798 507h22v-150l-22 -73h-21v117zM873 236h43l21 -7q-42 -133 -85 -201h-22v124q12 84 43 84zM182 174h21q73 -135 140 -135l10 -19v-116
l-21 -8q-150 82 -150 139v139zM798 119h22v-124l-22 -47h-21v120zM712 83h22v-128q-79 -81 -182 -81h-54l-21 8v131h96q59 0 139 66v4zM375 28h11l32 -11v-132h-11l-32 11v132z" />
    <glyph glyph-name="A" unicode="A" horiz-adv-x="790" 
d="M402 1210h68q19 0 87 -384v-550h-12q0 37 -13 37h-130l-12 12v873zM340 1185h19l12 -12v-872l-12 -13h-62l-12 13v649q32 235 55 235zM223 901h12v-625q-24 -21 -24 -74h-13v550zM569 758h13l31 -179v-557h-13l-31 186v550zM167 687h13v-544q-19 -185 -43 -185h-118v6z
M631 573h13l123 -557l-6 -6h-117l-13 12v551z" />
    <glyph glyph-name="B" unicode="B" horiz-adv-x="721" 
d="M78 1213h200l12 -12v-1187l-12 -12h-200l-12 12v1187zM41 1191l6 -6v-1199l-12 -12l-6 6v1199zM339 1177h30q121 0 121 -31v-1162l-18 -18h-133l-13 12v1187zM538 1171l19 -25v-1138l-12 -12h-19v1162zM575 1140h6q85 -90 85 -266q0 -148 -85 -236h-6v502zM575 613h12
q109 -84 109 -260v-43q0 -199 -115 -302l-6 6v599z" />
    <glyph glyph-name="C" unicode="C" horiz-adv-x="583" 
d="M284 1200q30 0 62 -21v-229h-11q-16 44 -62 44h-6q-36 0 -67 -72h-11v237q38 41 95 41zM393 1169v-247h-11v247h11zM404 1155h11l12 -13v-312h-12v3l-11 82v240zM166 1118h11v-237q-34 -123 -34 -288v-82q0 -160 34 -312v-226h-11q-51 74 -51 96v949q0 19 51 100z
M455 1090h11q74 -157 74 -281l-79 -44h-6v325zM81 994h12v-905h-12q-56 192 -56 367v161q0 190 56 377zM455 370h6l84 -61q0 -110 -79 -309h-11v370zM415 346h12v-325l-12 -24h-11v247zM393 233v-249h-11v249h11zM189 233h11q22 -72 79 -72h5q51 23 51 52h11v-229
q-31 -28 -67 -28h-12q-52 0 -78 48v229z" />
    <glyph glyph-name="D" unicode="D" horiz-adv-x="699" 
d="M357 1231q29 -6 29 -13v-1197q-3 -10 -34 -10v1213l5 3v4zM486 1157v-1121q-16 -25 -58 -39l-4 3v1200q62 -14 62 -43zM30 1218h67l9 -7v-1215l-9 -7h-67l-8 7v1215zM139 1195h180l13 -10v-1209l-9 -7h-184l-8 7v1212zM499 1157h4l25 -26v-1056q0 -17 -25 -33h-4v1115z
M562 1092h8q105 -179 105 -535q0 -315 -105 -505h-8v1040z" />
    <glyph glyph-name="E" unicode="E" horiz-adv-x="592" 
d="M334 1183h36l7 -6v-196l-7 -6h-36l-7 6v196zM394 1183h32l7 -6v-196l-7 -6h-32l-7 6v196zM149 1218h145l7 -6v-196l-7 -6h-124v-272h124l7 -7v-192l-7 -6h-117l-7 -7v-330h124l7 -6v-192l-7 -7h-145l-7 7v1214zM465 1207h78l7 -7v-192l-7 -6h-78l-7 6v192zM43 1200h71
l7 -6v-1215l-7 -6h-71l-7 6v1215zM334 703h36l7 -6v-193l-7 -6h-36l-7 6v193zM394 703h32l7 -6v-193l-7 -6h-32l-7 6v193zM465 726h56l8 -6v-193l-8 -6h-56l-7 6v193zM334 161h36l7 -6v-192l-7 -6h-36l-7 6v192zM394 161h32l7 -6v-192l-7 -6h-32l-7 6v192zM465 184h92l7 -6
v-192l-7 -6h-92l-7 6v192z" />
    <glyph glyph-name="F" unicode="F" horiz-adv-x="561" 
d="M419 1216h115l11 -12v-177l-11 -12h-115l-11 12v177zM41 1216h86l12 -12v-1208l-12 -11h-86l-11 11v1208zM368 1216h11l12 -12v-183l-12 -11h-11l-12 11v183zM167 1204h161l11 -11v-183l-11 -12h-143v-292h143l11 -11v-184l-11 -11h-143v-515l-12 -12h-6l-11 12v1208z
M419 723h69l12 -11v-183l-12 -12h-69l-11 12v183zM368 718h11l12 -12v-183l-12 -12h-11l-12 12v183z" />
    <glyph glyph-name="G" unicode="G" horiz-adv-x="730" 
d="M374 1209h47q59 0 70 -27v-221h-16q0 39 -116 54v181zM269 1209l8 -7v-187q-124 -98 -124 -342v-121q0 -253 124 -355v-201q-182 35 -248 442l-8 181q0 459 232 590h16zM308 1196l7 -7v-188l-15 -13l-8 7v187zM553 1175h7q132 -122 132 -308l-116 -40l-23 114v234z
M405 639h70l16 -13v-174l-16 -14h-70l-15 14v174zM568 639h116l16 -13v-449q0 -63 -140 -161l-7 7v228l31 40v140q0 14 -24 14l-7 7v174zM491 217v-208q0 -23 -86 -33h-31l-15 14v187h31zM308 177l7 -7v-201h-7l-16 14v180z" />
    <glyph glyph-name="H" unicode="H" horiz-adv-x="751" 
d="M560 1243h7l14 -11v-1223l-14 -11h-7l-14 11v534q-21 0 -21 12v188q0 11 21 11v478zM188 1230l14 -11v-484h168l14 -11v-188l-14 -11h-168v-534l-14 -12l-14 12v1228zM56 1225h77l14 -12v-1228l-14 -11h-77l-14 11v1228zM629 1220h63l14 -11v-1228l-14 -12h-63l-14 12
v1228zM474 741h7l14 -11v-188l-14 -11h-7l-14 11v188zM425 718l7 -5v-194l-14 -11l-7 6v193z" />
    <glyph glyph-name="I" unicode="I" horiz-adv-x="285" 
d="M29 1224h72l8 -9v-1245l-8 -9h-72l-9 9v1245zM199 1228h12l9 -9v-1236l-9 -9h-12l-9 9v1236zM143 1215l5 -5v-1245l-9 -9l-4 5v1245z" />
    <glyph glyph-name="J" unicode="J" horiz-adv-x="600" 
d="M381 1230h24l8 -7v-1208q-27 -36 -93 -53l-3 4v209q49 33 49 128q7 0 7 185v735zM430 1198h29l7 -7v-1151q-27 -47 -39 -53h-4v1204zM505 1180h39l7 -7v-799q0 -230 -46 -330h-7v1129zM148 378l3 -3v-21q1 -162 64 -192q11 0 11 -7v-202q0 -8 -11 -8q-111 0 -170 171
q-25 92 -25 191v36q0 12 124 32zM254 183h32v-206q-3 -10 -21 -10h-11l-7 7v202z" />
    <glyph glyph-name="K" unicode="K" horiz-adv-x="639" 
d="M93 1227h61l7 -7v-544h4l21 54h8v-298l-33 -89v-358l-7 -7h-61l-7 7v1235zM462 1232h136l-136 -319h-7v312zM459 1213h3v-315l-32 -90h-7v319q0 27 36 86zM43 1206h18l7 -7v-1235l-7 -8h-18l-7 8v1235zM401 1073h7v-322q0 -12 -28 -72l28 -107v-448h-7l-36 158v695z
M344 1009h7v-681h-7l-54 212q-6 0 -57 -126h-7v301zM423 608h7q32 -110 32 -129v-455h-7l-32 143v441zM462 491l147 -505v-4h-140q-10 0 -14 54v455h7z" />
    <glyph glyph-name="L" unicode="L" horiz-adv-x="622" 
d="M35 1228h12l7 -7v-1220l-7 -6h-12l-7 6v1220zM76 1206h101l8 -7v-1018h104l8 -8v-193l-8 -8h-213l-7 8v1219zM369 191h23l7 -8v-193l-7 -8h-23l-7 8v193zM319 195h15l7 -7v-193l-7 -8h-15l-8 8v193zM429 176h157l7 -8v-193l-7 -8h-157l-8 8v193z" />
    <glyph glyph-name="M" unicode="M" horiz-adv-x="816" 
d="M723 1252h46l9 -9v-1185l-9 -9h-46l-9 9v1185zM571 1243h64l10 -9v-1181l-10 -9h-14l-9 9v922h-4l-37 -285h-9v544zM53 1213h69l10 -9v-1181l-10 -9h-69l-9 9v1181zM556 1213l9 -9v-563q0 -54 -83 -622l-5 -5h-60l-9 9v388h9v-14h5q113 816 120 816h14zM677 1229h4l10 -9
v-1185l-10 -9h-4l-9 9v1185zM164 1171h92q17 0 55 -332q28 -146 28 -207v-654l-9 -10q-17 0 -37 217l-101 719h-5v-926l-9 -10h-14l-9 10v1184zM353 618h9v-5l23 -198v-415l-9 -8h-14l-9 8v618z" />
    <glyph glyph-name="N" unicode="N" horiz-adv-x="592" 
d="M141 1251h24q11 0 115 -419v-418h-7l-104 401h-4v-806l-7 -7h-17l-7 7v1235zM50 1223h52l7 -7v-1234l-7 -7h-52l-7 7v1234zM421 1211h17l7 -7v-1235l-7 -7h-28q-10 0 -70 244v419h7l63 -248h4v827zM504 1207h42l7 -7v-1238l-7 -7h-42l-7 7v1238zM476 1179l4 -3v-1242
l-7 -7l-3 4v1242zM298 784h7l35 -154v-408h-7l-35 150v412z" />
    <glyph glyph-name="O" unicode="O" horiz-adv-x="764" 
d="M430 1204q33 0 90 -45v-1122q-52 -45 -95 -45h-5v1202zM365 1199h35l10 -10v-1202l-10 -10h-35q-90 5 -90 25v1172q12 25 90 25zM176 1174h5v-1097h-5q-160 162 -160 494v94q0 314 145 499zM255 1149l5 -5v-1167h-10l-39 30v1112q1 11 44 30zM535 1149h5l40 -40v-1022
q-27 -40 -45 -40v1102zM615 1109h5q119 -156 119 -484v-34q0 -315 -119 -474h-5v992z" />
    <glyph glyph-name="P" unicode="P" horiz-adv-x="691" 
d="M52 1212h76l8 -8v-1208l-8 -8h-76l-8 8v1208zM427 1227l4 -4v-744l-8 -8l-4 4v744zM511 1187q57 -19 100 -96q48 -103 48 -236v-64q0 -251 -148 -336h-8l-4 4v720q0 8 12 8zM196 1196l192 -4l4 -4v-744q0 -12 -92 -12h-80v-452l-8 -8h-20l-8 8v1208q0 8 12 8zM451 1207
q28 -4 28 -12v-724q-2 -12 -32 -12l-4 4v736z" />
    <glyph glyph-name="Q" unicode="Q" horiz-adv-x="902" 
d="M457 1217q106 0 185 -97v-1143h-5q-32 27 -32 41q-79 -55 -153 -55q-96 9 -106 32v1195q9 23 111 27zM222 1199v-1140h-5q-81 53 -129 217v701q35 144 125 222h9zM296 1190v-1195q-25 0 -37 18v1154q12 23 37 23zM669 1153h5q14 -5 14 -28v-1134h-5q-14 4 -14 27v1135z
M737 1116q97 -179 97 -475v-19q0 -288 -83 -447q60 -66 111 -107l-46 -161h-14q-40 26 -74 70v1139h9zM60 959h10v-655h-10q-32 141 -32 286v92q0 127 32 277z" />
    <glyph glyph-name="R" unicode="R" horiz-adv-x="674" 
d="M49 1259h168l8 -7v-759l-41 3h-29v-537l-8 -7h-98l-8 7v1293zM417 1242q32 -12 32 -18v-672q-5 -11 -36 -25l-5 4v704zM368 1221q24 -5 24 -11v-714l-4 -3l4 -4v-367h-8l-20 93v999l4 3v4zM486 1221h4q98 -83 98 -336q0 -243 -98 -330h-4v666zM249 1217h53q45 0 45 -10
v-992h-8q-57 229 -94 229l-4 4v762zM408 503h9q32 -55 32 -66v-430h-8l-33 132v364zM486 427h8q49 -138 139 -478l-4 -4h-123q-12 0 -20 49v433z" />
    <glyph glyph-name="S" unicode="S" horiz-adv-x="579" 
d="M168 1240h7v-218q-26 -35 -26 -86v-15q0 -41 26 -94v-252h-7q-124 97 -124 349q0 222 124 316zM302 1229h15q77 0 121 -75v-297q0 -7 -34 -12q-22 181 -91 181q-18 0 -18 7v188zM269 1221h8l7 -7v-188q0 -7 -41 -19l-4 4v199q3 11 30 11zM198 1214l7 -8v-199l-11 -11h-4
v210zM460 1097h4q10 0 22 -45v-240l-11 -12h-7l-8 8v289zM494 1075h7q38 -129 38 -237l-41 -8l-4 4v241zM190 796h4l11 -11v-252l-7 -7l-8 11v259zM247 785l37 -34v-244l-3 -4v-3q-39 18 -42 30v248zM298 759q82 -39 140 -98v-646q-47 -60 -113 -60h-23l-7 8v194l7 8h27
q60 0 82 124l4 53q0 115 -113 158l-7 11v248h3zM460 605h4q6 0 22 -30v-575l-22 -30h-4v635zM494 594h7q53 -112 53 -267v-42q0 -128 -53 -248h-7v557zM126 424q19 -134 49 -195v-229h-7q-72 41 -109 173q-33 139 -34 225zM190 191h8l7 -15v-217h-7l-8 7v225zM247 176l4 -3
l33 -23v-195l-7 -8q-38 5 -38 16v206z" />
    <glyph glyph-name="T" unicode="T" horiz-adv-x="553" 
d="M193 1250h59l8 -8v-1234l-8 -7h-24l-8 7v1032h-27l-8 8v194zM155 1238h8v-202h-8v202zM32 1230h91l8 -8v-194l-8 -8h-91l-8 8v194zM458 1210h60l8 -8v-194l-8 -8h-60l-8 8v194zM292 1198h87l8 -7v-195l-8 -8h-32v-1031l-8 -8h-47l-8 8v1234zM411 1198h12l8 -7v-195l-8 -8
h-12l-8 8v195z" />
    <glyph glyph-name="U" unicode="U" horiz-adv-x="522" 
d="M44 1253h54l6 -7v-1224h-6q-61 121 -61 478v746zM134 1253h14l7 -7v-649q0 -349 20 -349q0 -20 27 -64v-235h-4q-33 0 -70 70v1227zM424 1236h57l7 -7v-534q0 -548 -21 -548q-2 -50 -43 -148h-7v1230zM377 1206h10l6 -7v-1230q0 -19 -30 -44h-3v229l10 504v541zM346 261
h7v-285q-28 -34 -81 -34q-53 4 -53 17v225h3q26 -20 47 -20q61 0 77 97z" />
    <glyph glyph-name="V" unicode="V" horiz-adv-x="812" 
d="M672 1242h92l4 -4h4l-100 -516h-8v512zM167 1221q13 0 28 -132v-700h-8l-160 828l4 4h136zM619 1217h12l8 -8v-524l-20 -132h-8v656zM591 1177h4v-664l-36 -216h-8v672q29 208 40 208zM223 1049h8l140 -760h8v4l120 680h8v-668q0 -33 -64 -340h-140q-14 0 -68 316
q-12 25 -12 80v688z" />
    <glyph glyph-name="W" unicode="W" horiz-adv-x="937" 
d="M135 1246l11 -8l61 -685v-571l-11 -8h-22q-17 0 -56 423l-94 845l6 4h105zM379 1229l11 -8v-622q-63 -642 -83 -642h-61l-11 8v550h11l11 -151h5q95 797 111 865h6zM782 1217h105v-5l-138 -1264h-11v878q23 391 44 391zM429 1196h88q24 0 56 -429v-760h-11v4l-100 857h-6
l-27 -244h-11v563zM699 796h11v-814l-11 -8l-11 8v621zM599 759l44 -429l12 9l11 172h11v-571l-11 -9h-67l-11 9v819h11z" />
    <glyph glyph-name="X" unicode="X" horiz-adv-x="794" 
d="M645 1249h109l-109 -327h-8v318zM47 1249h157q15 0 122 -344v-580q-22 -91 -135 -388h-161l-9 9l248 675q-222 611 -222 628zM596 1245h31l9 -9v-327l-48 -153h-9v445q5 44 17 44zM544 1136h9v-454l-44 -126l44 -140v-444h-9l-122 357h-4l-13 -43h-9v536h9q11 -53 21 -53
zM579 460h9l48 -144v-374l-9 -9h-17q-14 0 -31 82v445zM645 307l131 -365l-4 -5h-127l-8 9v361h8z" />
    <glyph glyph-name="Y" unicode="Y" horiz-adv-x="825" 
d="M701 1253h94l4 -4h4l-102 -296h-8v292zM655 1243h21l9 -8v-296l-30 -102h-8v398zM181 1235q13 0 68 -195v-422h-9l-211 613l4 4h148zM604 1197h4v-410l-12 -51h-9v414q7 47 17 47zM545 1134h8v-415l-80 -254v-503l-8 -8h-81l-8 8v820h8l21 -76h9zM270 1036h9l63 -207
v-829l-8 -8h-22l-8 8v499l-34 110v427z" />
    <glyph glyph-name="Z" unicode="Z" horiz-adv-x="708" 
d="M507 1227h143l7 -8v-181l-150 -344h-8v525zM71 1218h62l8 -7v-194l-8 -7h-62l-7 7v194zM164 1218h201l8 -7v-194l-8 -7h-201l-8 7v194zM404 1218h15l8 -7v-568l-23 -70h-8v371l23 66q-23 0 -23 7v194zM477 1218l8 -7v-533l-8 -27h-8v560zM365 936h8v-370l-166 -383h158
l8 -8v-192l-8 -8h-201l-8 8v467q0 17 209 482v4zM133 454h8v-471l-8 -8h-100l-8 8v208q0 12 108 263zM507 192h154l8 -8v-192l-8 -8h-154l-8 8v192zM404 183h15l8 -8v-192l-8 -8h-15l-8 8v192zM477 183l8 -8v-192l-8 -8l-8 8v192z" />
    <glyph glyph-name="bracketleft" unicode="[" horiz-adv-x="320" 
d="M166 1328h56l8 -8v-152l-8 -8h-28v-1088h28l8 -8v-152l-8 -8h-56l-8 8v1408zM258 1316h44l8 -8v-152l-8 -8h-44l-8 8v152zM58 1308h44l8 -8v-1408l-8 -8h-44l-8 8v1408zM31 1316l4 -4v-1412l-8 -8l-4 4v1412zM258 56h44l8 -8v-152l-8 -8h-44l-8 8v152z" />
    <glyph glyph-name="backslash" unicode="\" horiz-adv-x="410" 
d="M121 1312q14 -5 14 -27v-666l-9 -9l-96 697l5 5h86zM167 1109h9l59 -497v-652h-9v5l-59 583v561zM258 630h9l14 -146v-551l-9 -9h-5l-9 9v697zM308 389h9v-5l64 -492l-4 -5h-60l-9 10v492z" />
    <glyph glyph-name="bracketright" unicode="]" horiz-adv-x="358" 
d="M233 1350h20l8 -8v-1440l-8 -8h-20l-8 8v1440zM85 1342h24l8 -8v-152l-8 -8h-24l-8 8v152zM145 1338h32l8 -8v-1440l-8 -8h-32l-8 8v152q0 8 12 8v1116q-12 0 -12 8v156zM285 1338h24l8 -8v-1440l-8 -8h-24l-8 8v1440zM43 1345h32l8 -8v-152l-8 -8h-32l-8 8v152zM85 58
h24l8 -8v-156l-8 -8h-24l-8 8v156zM43 61h32l8 -8v-156l-8 -8h-32l-8 8v156z" />
    <glyph glyph-name="asciicircum" unicode="^" horiz-adv-x="484" 
d="M228 1249l6 -6v-247h-6l-2 25q-7 0 -50 -211q-32 -136 -37 -136h-102l-3 3h-3l150 572h47zM256 1249h22q9 0 11 -39v-395h-5l-33 170v258zM305 1186l6 -38v-401h-6l-5 42v397h5zM330 1142h6l122 -484l-3 -2h-102q-11 0 -23 83v403z" />
    <glyph glyph-name="underscore" unicode="_" horiz-adv-x="781" 
d="M737 145h13l6 -4v-124l-6 -3h-13l-5 3v124zM455 141h86l5 -4v-123l-5 -4h-86l-5 4v123zM613 141h117l5 -4v-123l-5 -4h-117l-5 4v123zM33 131h272l5 -3v-124l-5 -4h-272l-5 4v124zM328 131h84l5 -3v-124l-5 -4h-84l-5 4v124z" />
    <glyph glyph-name="grave" unicode="`" horiz-adv-x="406" 
d="M189 1152h8l8 -8v-304h-8l-16 44v260zM233 1152h8l12 -12v-308l-8 -8h-12l-8 8v312zM164 1170l8 -8v-256h-8l-132 260l4 4h128zM281 1092h8l64 -264l-4 -4h-60l-8 8v260z" />
    <glyph glyph-name="a" unicode="a" horiz-adv-x="548" 
d="M252 911h24q124 0 160 -90v-792l-7 -8h-44q-12 0 -23 94h-4q-41 -82 -110 -110l-4 4v522q0 6 106 55v58q0 91 -82 91h-16l-8 7v161zM218 884l4 -4v-165q-59 -48 -59 -110h-8v251q27 28 63 28zM132 880l4 -4v-243l-4 -4v-4q-106 34 -106 43q19 105 62 172q32 37 44 40z
M448 801h8q31 -59 31 -211v-381q0 -122 28 -204l-4 -3h-55l-8 7v792zM218 511l4 -4v-521l-8 -8h-51l-8 8v494q0 8 63 31zM132 503l4 -4v-494h-4q-62 0 -110 161l-8 67v47q0 157 118 223z" />
    <glyph glyph-name="b" unicode="b" horiz-adv-x="540" 
d="M94 1248h4l9 -9v-1221l-9 -9h-4l-9 9v1221zM29 1239h32l9 -9v-1221l-9 -9h-32l-9 9v1221zM134 1225h23l9 -9v-432h4q30 85 90 113h9l5 -5v-918l-9 -9q-63 27 -104 134v9h-4v-116l-9 -9h-14l-9 9v1224zM323 924h5l9 -9v-923l-9 -9h-5l-9 9v923zM368 861q68 0 131 -172
q27 -122 27 -243v-85q0 -339 -144 -432l-18 -5l-5 5v923z" />
    <glyph glyph-name="c" unicode="c" horiz-adv-x="583" 
d="M313 916q136 -28 136 -87v-209q0 -13 -54 -20q-20 136 -92 136v170zM235 911l5 -5v-170q-78 -54 -78 -243v-39q0 -212 78 -267v-175l-10 -10q-77 0 -150 151v593q0 76 116 155zM279 901h5l9 -9v-161l-19 -14l-5 5v170zM483 848h10q53 -105 53 -194l-58 -20l-5 5v209z
M59 763h10v-569h-10q-39 138 -39 287q0 151 39 282zM405 352q44 -12 44 -19v-243q0 -63 -141 -92l-5 4v175q0 8 44 20q53 58 53 150zM483 352h5l73 -19q0 -69 -68 -229h-10v248zM274 177q19 -7 19 -14v-170l-9 -10h-5l-10 10v175l5 5v4z" />
    <glyph glyph-name="d" unicode="d" horiz-adv-x="570" 
d="M402 1236h12l7 -8v-1221l-7 -7h-4l-8 7v123h-4q-59 -150 -134 -150l-4 4v922q0 7 11 7q53 0 123 -119v434zM448 1213h73l8 -8v-1217l-8 -8h-73l-8 8v1217zM190 885l4 -4v-918l-4 -4v-4q-43 0 -112 111q-61 134 -61 331v61q0 316 138 415zM245 894l3 -4v-921l-7 -8l-4 4
v921z" />
    <glyph glyph-name="e" unicode="e" horiz-adv-x="574" 
d="M290 945q89 0 138 -89v-459l-8 -6h-130l-9 6v542zM210 927h4l9 -6v-536l-9 -6h-8l-9 6v532zM195 924h9v-532l-9 -6h-33q0 -102 42 -193v-205h-9q-79 47 -79 79v775q12 40 79 82zM256 908h4l9 -6v-542l-9 -6h-4l-8 6v542zM449 838h9q79 -137 79 -404v-52l-8 -6h-71l-9 6
v456zM86 808h9v-756h-9q-71 144 -71 361v46q0 200 71 349zM390 290q37 -12 38 -18v-224q0 -28 -84 -64l-33 -6h-21l-9 6v171q0 6 47 9q36 23 54 101q0 25 8 25zM458 259l75 -24q0 -47 -67 -190l-4 -3q0 -9 -9 -9h-4v220zM202 180q21 -13 21 -28v-174l-9 -6h-4l-13 9v199h5z
M248 134h4l17 -9v-174l-9 -7h-4l-8 7v183z" />
    <glyph glyph-name="f" unicode="f" horiz-adv-x="315" 
d="M206 1190h16q49 0 80 -28q-11 -152 -20 -152l-32 8h-8q-40 0 -40 -100v-72h68l8 -8v-160l-8 -8h-68v-664l-8 -8h-16l-8 8v1164q0 12 36 20zM158 1170h4v-1164l-8 -8l-4 4v1160zM130 1130h4v-1148l-8 -8h-40l-8 8v664h-20l-8 8v160l8 8h20q0 285 52 308zM19 832h8l8 -8
v-160l-8 -8h-8l-8 8v160z" />
    <glyph glyph-name="g" unicode="g" horiz-adv-x="665" 
d="M332 951l12 -12v-914l-12 -12l-12 12v914zM628 951h13l12 -12v-739q0 -244 -25 -356h-12v1095zM289 933l6 -6v-932q0 -12 -18 -12q-81 0 -139 84v781q63 85 151 85zM368 927q83 -36 121 -133h6v109l12 12h79l12 -12v-1126q-55 -157 -169 -157l-37 -6h-18l-12 12v157
l85 36q42 33 42 260v55q-58 -101 -115 -133h-12v914l6 6v6zM102 836h12v-757h-12q-79 157 -79 309v139q0 162 79 309zM47 -84q67 -4 67 -24v-212h-6q-73 83 -73 230l6 6h6zM150 -96q85 -6 85 -36q0 -35 60 -85v-163l-12 -13q-70 0 -145 67v218zM332 -181l12 -18v-157
l-12 -12l-12 12v163z" />
    <glyph glyph-name="h" unicode="h" horiz-adv-x="557" 
d="M147 1234h16l8 -8v-440h4l8 24h8v-132q-20 -121 -20 -224v-428l-8 -8h-16l-8 8v1200zM39 1218h76l8 -8v-1196l-8 -8h-76l-8 8v1196zM349 906q79 0 116 -88v-800l-8 -8h-68l-8 8v492q0 206 -48 208q-2 12 -32 12l-48 -12v144q36 44 96 44zM229 830h8v-136l-28 -56h-8v140
q0 11 28 52zM485 790h8q32 -89 32 -188v-608l-8 -8h-24l-8 8v796z" />
    <glyph glyph-name="i" unicode="i" horiz-adv-x="212" 
d="M110 1196l4 -4v-200l-8 -8l-4 4v200zM138 1196h36l8 -8v-184l-8 -8h-36l-8 8v184zM38 1176h48l8 -8v-196l-8 -8h-48l-8 8v196zM138 872h36l8 -8v-856l-8 -8h-36l-8 8v856zM110 864l4 -4v-860l-8 -8l-4 4v860zM38 844h48l8 -8v-856l-8 -8h-48l-8 8v856z" />
    <glyph glyph-name="j" unicode="j" horiz-adv-x="294" 
d="M158 1205l5 -5v-197l-10 -9l-4 4v198zM129 1200h10l9 -9v-197l-9 -10h-10l-9 10v197zM222 1187h46l10 -10v-197l-10 -9h-46l-9 9v197zM181 1145l5 -4v-203l-10 -9l-4 5v202zM158 874l5 -5v-1231l-10 -9l-4 4v1232zM129 865h10l9 -9v-1232q-5 -14 -28 -14h-23
q-58 0 -78 28l18 193l33 -5q50 0 50 83v947zM222 846h46l10 -9v-854q0 -294 -42 -331l-18 -19h-5v1204zM181 805l5 -5v-1217l-10 -10h-4v1223z" />
    <glyph glyph-name="k" unicode="k" horiz-adv-x="544" 
d="M30 1249h96l7 -7v-1259l-7 -8h-96l-7 8v1259zM155 1227h7l7 -7v-667q9 0 19 33h7v-285l-26 -62v-278l-7 -8h-7l-8 8v1259zM339 900h150l4 -3h3l-168 -337l183 -578l-4 -4h-132q-17 21 -131 410v318q53 127 95 194zM239 711h7v-311q-11 -2 -33 -55h-7v285z" />
    <glyph glyph-name="l" unicode="l" horiz-adv-x="220" 
d="M28 1211h5l8 -11v-1238l-8 -10h-5l-8 10v1238zM54 1206h8v-1233h-8v1233zM135 1211h19l20 -11v-1243l-20 -11h-19l-20 11v1243zM55 1200h25l8 -10v-1249l-8 -11h-25l-9 11v1249z" />
    <glyph glyph-name="m" unicode="m" horiz-adv-x="622" 
d="M471 957h8q40 -6 40 -19v-952l-7 -7h-4l-7 7v567q0 207 -37 207v189zM538 935q63 -49 63 -405v-544l-7 -7h-56l-7 7v941zM240 979h7v-219h-7l-8 26v186zM445 923h8v-181q0 -5 -34 -15l-18 -37h-8v159q0 30 52 74zM262 946q34 -7 63 -67v-904l-8 -8h-40l-8 8v630l-11 126
v207l4 4v4zM221 942l4 -4v-185l-4 -4v-4l-22 8q-67 0 -67 -319v-459l-7 -8h-19l-7 8v941l7 7h11l8 -7v-119h3q47 145 93 145zM39 923h41l8 -7v-941l-8 -8h-41l-7 8v941zM380 890h8v-152q-19 -113 -19 -278v-456l-7 -7h-19l-7 7v882h7l15 -59h4z" />
    <glyph glyph-name="n" unicode="n" horiz-adv-x="561" 
d="M354 933q43 0 72 -29v-912l-6 -6h-26l-6 6v472q0 238 -37 260q-15 21 -32 21h-23l-6 5v160q27 23 64 23zM35 924h84l6 -5v-916l-6 -5h-84l-6 5v916zM148 913h8l6 -6v-128h3l12 38h6v-165q-15 -86 -15 -243v-417l-6 -6h-14l-6 6v915zM428 898q42 -39 55 -90v-823l-6 -6
h-46l-6 6v913h3zM272 878v-162q-63 -48 -63 -93h-6v165q23 62 66 90h3zM501 816h5q21 -95 21 -194v-614l-6 -6h-15l-5 6v808z" />
    <glyph glyph-name="o" unicode="o" horiz-adv-x="635" 
d="M244 932l5 -5v-914l-9 -9l-5 5v914zM238 927l5 -4v-910l-9 -9q-92 31 -153 144q-56 134 -56 306v42q16 372 213 431zM369 918h10q74 0 157 -158l10 -32v-534q0 -60 -112 -171l-60 -28l-5 5v918zM309 913h33l9 -9v-913l-9 -10h-33l-9 10v913zM564 709h10q32 -117 32 -213
v-70q0 -90 -32 -213h-10v496z" />
    <glyph glyph-name="p" unicode="p" horiz-adv-x="596" 
d="M342 969h12v-992l-8 -8h-4l-8 8v984zM38 923h84l8 -8v-1312l-8 -8h-84l-8 8v1312zM306 937v-984h-8v984h8zM298 903v-976l-8 -8q-73 70 -88 128h-4v-472l-8 -8h-8l-8 8v1312l8 8l8 -8v-128h4q27 96 92 140zM386 913q143 0 188 -372l4 -108v-32q0 -384 -156 -484l-36 -8
h-4l-8 8v988q0 8 12 8z" />
    <glyph glyph-name="q" unicode="q" horiz-adv-x="747" 
d="M565 976l5 -5v-1369l-10 -10h-10l-10 10v492h-5l-29 -64h-10v897h10l44 -94h5v133zM604 976h108l10 -10v-1364l-10 -10h-108l-10 10v1364zM333 967h5q69 -5 69 -19v-1000q-17 -29 -79 -29h-14l-10 10v1024q5 14 29 14zM274 958h5v-1034h-5q-44 10 -44 24v985q0 15 44 25z
M412 937q13 0 49 -45v-910l-49 -50l-5 5v1000h5zM171 913h5v-984h-5q-153 142 -153 462v84q0 310 153 438z" />
    <glyph glyph-name="r" unicode="r" horiz-adv-x="380" 
d="M277 947h21q24 0 66 -41l-33 -213h-4q-32 32 -50 32h-8q-30 0 -45 -41h-8v189q23 74 61 74zM34 925h78l8 -9v-923l-8 -8h-78l-8 8v923zM166 916l4 -4v-127h4l16 62h8v-185q-20 -105 -20 -296v-385l-8 -9h-4l-9 9v927z" />
    <glyph glyph-name="s" unicode="s" horiz-adv-x="596" 
d="M327 967q78 0 128 -64v-204q0 -13 -53 -23q-15 110 -79 110l-4 3v170zM214 964l3 -4v-170l-41 -19q-27 -24 -27 -68q0 -46 68 -83v-238l-3 -4v-3q-124 57 -155 143q-27 73 -27 163q0 215 140 276zM270 930h12l7 -7v-163q-4 -11 -23 -11l-3 4v170zM482 899h7
q61 -123 61 -181l-64 -23l-4 4v200zM323 608q116 -52 132 -79v-495q-52 -60 -132 -60l-4 3v174q0 5 49 15q46 32 46 94q0 70 -87 95l-8 7v238l4 4v4zM263 582q20 0 26 -15v-242q-20 0 -26 16v241zM482 525h4q83 -73 83 -231q0 -159 -83 -257h-4v488zM145 299v-4
q0 -93 72 -140v-169l-7 -8q-88 0 -155 140q-23 48 -38 147q106 34 128 34zM270 121h12l7 -7v-166l-7 -8h-12l-7 8v166z" />
    <glyph glyph-name="t" unicode="t" horiz-adv-x="337" 
d="M218 1065h8v-271h64l7 -7v-151l-7 -7h-64v-422q0 -32 26 -48q15 0 42 18h3l8 -161q-42 -26 -68 -26h-22l-8 7v1049zM139 1020h4v-1012h-7q-38 34 -38 60v907q28 38 41 45zM192 1012h4v-1041l-8 -8h-3l-12 12v1015zM85 959h4v-892h-8q-11 78 -11 158v395h-41l-8 8v150l8 8
h41v146q0 21 15 27z" />
    <glyph glyph-name="u" unicode="u" horiz-adv-x="613" 
d="M535 910h36l8 -8v-880l-8 -8h-36l-8 8v880zM51 907h116l8 -8v-508q0 -78 12 -168v-220l-4 -4v-4q-40 0 -92 76q-48 68 -48 340v488zM443 890h56l8 -8v-876l-8 -8h-48l-8 8v120q-8 0 -8 -12h-8v24l8 524v220zM387 314h8v-160q0 -46 -104 -124l-24 -8l-4 4v172l4 4v4l4 -4
h32q54 0 84 112zM207 251h8q0 -11 28 -40v-176l-8 -8h-20l-8 8v216z" />
    <glyph glyph-name="v" unicode="v" horiz-adv-x="643" 
d="M154 928q12 0 36 -166v-544h-7l-155 706l4 4h122zM466 927h11l7 -7v-454l-32 -173h-7v548q11 86 21 86zM528 927h86l7 -7l-93 -432h-7v432zM410 791h7v-544l-25 -133h-7v533zM212 690h7l79 -421h4l65 342h7v-537q-12 -86 -22 -86h-101q-14 0 -39 158v544z" />
    <glyph glyph-name="w" unicode="w" horiz-adv-x="756" 
d="M343 960h80q25 0 54 -361q9 0 27 -227h6l14 120h13v-428l-13 -13h-54q-22 0 -80 568h-13v-7l-34 -307h-13v642zM617 947h14v-589q-32 -321 -54 -321h-7l-13 14v434q0 67 60 462zM664 927h60l14 -14l-74 -515h-13v515zM56 913h33l13 -13v-455h-13v7l-47 368v80zM29 917
l7 -7v-53h-13v40l-7 7v6l7 7h6zM129 900h7q17 0 87 -595h6l34 314h13v-621l-13 -14h-80q-20 0 -67 434v468zM303 826h13v-608l-6 -134h-14v629z" />
    <glyph glyph-name="x" unicode="x" horiz-adv-x="587" 
d="M182 924h5l9 -9v-393h-9l-13 54v339zM392 924l9 -9v-322l-31 -102l31 -107v-371h-4q-9 3 -98 277h-5l-67 -210h-9v357l5 40l-5 45v366h9l67 -214h5q81 250 93 250zM163 924h9v-335h-9v335zM433 902h102l9 -9l-111 -313h-9v313zM137 911l9 -9v-300h-9l-108 304l5 5h103z
M187 437h9v-371l-14 -53h-8v371zM163 379h9v-362h-9v362zM424 352h9l125 -361l-5 -5h-120l-9 9v357zM137 330h9v-322l-9 -8h-103l-5 4h-4z" />
    <glyph glyph-name="y" unicode="y" horiz-adv-x="717" 
d="M638 907h53l5 -4h4l-62 -282h-9v277zM185 865q18 0 36 -148v-572h-9l-165 715l4 5h134zM522 894h31l9 -9v-402l-139 -634h-9v540q90 505 108 505zM589 894h4l9 -9v-304l-13 -85h-9v389zM244 744h8l94 -460h5l9 58h9v-527q-50 -138 -139 -138l-4 4v192q49 114 49 152
q-31 116 -31 143v576zM391 337h9v-553h-9v553zM194 -95h5v-197l-9 -9q-98 5 -98 22l-9 170h4l58 -9q24 0 49 23z" />
    <glyph glyph-name="z" unicode="z" horiz-adv-x="458" 
d="M180 938h94l8 -8v-440l-102 -290h-8v334l67 196h-4l-59 -4l-4 4v200zM58 930h87l7 -8v-192l-7 -8h-4l-87 -4l-4 4v200zM400 926h19l8 -8v-168l-27 -83h-8v251zM40 930h3l8 -8v-196l-8 -8h-3l-8 8v196zM306 903h51l7 -8v-267l-58 -173h-8v440zM145 522h7v-549l-7 -8h-87
l-8 8v274zM43 243h8v-270l-8 -8h-19l-8 8v180zM254 196h20l8 -8v-211l-8 -8h-94l-8 8v211zM400 184h31l8 -8v-211l-8 -8h-31l-8 8v211zM306 161h51l7 -8v-212l-7 -7h-51l-8 7v212z" />
    <glyph glyph-name="braceleft" unicode="{" horiz-adv-x="337" 
d="M283 1232h28l8 -8v-144l-8 -8h-36v152zM191 1220l4 -4v-464q0 -94 -60 -156h-4v548q0 33 56 76h4zM251 1212l4 -4v-156q-28 -23 -28 -68v-116h-8v332q3 12 32 12zM127 1133h8v-1084h-8q-16 50 -16 536q0 508 16 548zM83 757h8v-304h-8q0 52 -64 72l-4 4v148l4 4
q64 22 64 76zM135 588q30 0 60 -152v-472h-4q-60 36 -60 76v548h4zM219 272h8v-108q0 -46 28 -68v-152l-8 -8q-28 4 -28 12v324zM275 112q44 0 44 -12v-140l-8 -8h-28l-8 8v152z" />
    <glyph glyph-name="bar" unicode="|" horiz-adv-x="151" 
d="M40 1183h26l10 -10v-1149l-10 -10h-26l-10 10v1149zM107 1183h5l10 -10v-1159l-10 -10h-5l-11 10v1159z" />
    <glyph glyph-name="braceright" unicode="}" horiz-adv-x="371" 
d="M28 1255h28q72 0 104 -56v-579h-7q-56 64 -56 323q0 142 -21 142q0 6 -55 14v149zM201 1217h7q28 -25 28 -340q3 -61 17 -118v-249q-17 -71 -17 -108v-132q0 -152 -28 -221h-7v575l7 10l-7 21v562zM284 750q0 -20 55 -34v-153q0 -8 -31 -10q-24 -18 -24 -28h-7v225h7z
M156 589h4v-579q-42 -55 -101 -55h-31l-7 7v149q0 8 49 10q27 18 27 94q0 304 42 353z" />
    <glyph glyph-name="asciitilde" unicode="~" horiz-adv-x="643" 
d="M601 660h6v-147q0 -14 -48 -48h-3v147q37 29 45 48zM184 679h6q60 0 157 -54q21 -7 21 -10v-158h-3q-49 19 -138 64l-40 7h-26q-48 0 -108 -73h-6v145q61 79 137 79zM382 629h3q24 -8 34 -16v-145l-6 -3q-31 3 -31 7v157zM533 629h3v-145q-42 -31 -80 -31h-3l-5 4v143
l2 2v2l15 -2q23 0 68 27z" />
    <glyph glyph-name="Ccedilla" unicode="&#xc7;" horiz-adv-x="712" 
d="M373 1234q114 -15 114 -40v-252h-10q-35 89 -109 89l-5 5v188zM362 1240l5 -5v-188q0 -9 -50 -25l-5 5v193q0 12 50 20zM277 1225l5 -5v-198l-34 -39h-5v222q0 10 34 20zM536 1184l30 -34v-322l-10 -10l-30 114v242zM203 1171h10v-218q-59 -120 -59 -258l-5 -104
q0 -239 64 -351v-223h-10q-188 143 -188 555v24q0 426 188 575zM596 1145q99 -147 99 -263l4 -5l-108 -49l-5 5v302zM556 442h10v-372l-35 -34l-5 5v262zM596 437q95 -50 103 -65q-29 -178 -94 -287l-14 -10h-5v352zM477 313h10v-262q-11 -20 -80 -40v-5q70 -28 70 -138v-5
q0 -118 -94 -159l-15 -5l-5 5v90q30 32 30 54v30q0 25 -30 54v267q0 8 44 20q70 62 70 94zM243 270h5q34 -22 34 -50v-183l-5 -5v-5q-31 13 -34 25v218zM312 230q55 -11 55 -25v-257l-10 -10h-35l-10 10v59q0 10 15 10v5q-15 0 -15 10v198zM272 7l10 -9v-55l-19 -15l-5 5v5
q0 69 14 69zM218 -195q64 -9 64 -20v-74l-10 -10h-19q-37 0 -40 15v79l5 5v5zM362 -195l5 -5v-89l-10 -10h-35l-10 10v74q0 7 50 20z" />
    <glyph glyph-name="Ntilde" unicode="&#xd1;" horiz-adv-x="691" 
d="M492 1331q9 0 9 -15q0 -181 -68 -181h-23l-49 41v114h4q34 -26 50 -26h13q14 0 28 67h36zM270 1300h36q32 -22 32 -31v-113l-45 15h-9q-19 -7 -19 -46v-16h-9v176zM221 1313h5v-170l-9 -11h-23l-9 11v10q0 121 36 160zM591 1094h41l9 -11v-1140l-9 -10h-41l-9 10v1140z
M546 1068l9 -10v-1140l-9 -11l-9 11v1140zM492 1063h9l9 -11v-1140l-9 -10h-18q-18 18 -122 392v376h9l108 -376h5v758zM63 1091h45l9 -10v-1140l-9 -11h-45l-9 11v1140zM167 1065h27q16 0 32 -93v-382h-9l-18 68h-5v-748l-9 -11h-18l-9 11v1145zM265 934l73 -264v-376h-9
l-73 258v382h9z" />
    <glyph glyph-name="ccedilla" unicode="&#xe7;" horiz-adv-x="509" 
d="M244 923h4l9 -9v-166q0 -8 -44 -18q-41 -56 -41 -94h-9v256q26 31 81 31zM298 901h13l14 -14v-197h-9l-27 36v166zM338 896h9q42 -16 85 -130v-143q0 -12 -76 -31v4l-18 94v206zM136 887l5 -4v-94l-5 -318l5 -327v-112l-9 -9q-103 128 -103 434q0 319 107 430zM463 734
l18 -117l-22 -9l-5 5v121h9zM365 336q66 -21 67 -31v-170q0 -71 -89 -143l-5 4v201zM463 299l23 -9q0 -43 -23 -152h-9v152zM163 291h9q21 -116 85 -116v-268l-9 -9l-8 9h-23l-36 -9l-4 4v5q0 80 31 80q-44 27 -45 36v268zM316 188h9v-201q0 -13 -18 -13v-5q18 -2 18 -13
v-282l-27 -23h-9v104l9 49v27l-9 49v277q27 21 27 31zM338 -44h9q31 -65 31 -116v-32q0 -71 -35 -112h-5v260zM257 -228v-103q-2 -13 -35 -13h-41q-45 6 -45 18v81l5 4v4l54 -4h22z" />
    <glyph glyph-name="ntilde" unicode="&#xf1;" horiz-adv-x="604" 
d="M215 1348h13q52 -18 52 -38v-131l-61 22l-4 -6h-4l-5 6v136zM476 1332h17l9 -11v-11q-5 -143 -31 -164h-4v175zM185 1310l4 -6v-136l-4 -27h-9v158zM441 1293l9 -11v-180q-18 -32 -44 -32q-34 0 -87 54v126l9 11q39 -44 65 -44h4q35 31 35 76h9zM145 1263h8v-202l-8 -11
h-40l-8 11v28q0 127 48 174zM276 982l4 -5v-153q-65 -67 -65 -115h-9v180q28 60 70 93zM467 971h9q91 -68 91 -311v-633l-9 -11h-82l-9 11v944zM393 960q57 -9 57 -27v-938l-9 -11h-9l-9 11v545q0 171 -43 213q-9 11 -56 11l-5 5v159q0 23 74 32zM45 919h100l8 -10v-934
l-8 -11h-100l-9 11v934zM180 835h9l-4 -584v-246h-9v803z" />
    <glyph glyph-name="cent" unicode="&#xa2;" horiz-adv-x="535" 
d="M387 1209q14 0 48 -24l-44 -268q72 -64 88 -152l12 -64l-104 -36l-16 68v372zM335 1105h8v-324q-12 0 -20 -88q-6 0 -8 -44h-8v320q12 0 28 136zM255 981h16l8 -8v-356l-40 -272l20 -4l16 4l4 -4v-156l-8 -8h-16l-48 4l-28 -200h-8v972q22 28 84 28zM139 931h8v-1044h-4
l-48 20l44 280q-112 116 -112 344v60q0 236 112 340zM391 449l108 -36q0 -85 -76 -220l-44 -36h-8v192zM335 381h8v-184q0 -12 -32 -16l-4 4v160q28 22 28 36z" />
    <glyph glyph-name="section" unicode="&#xa7;" horiz-adv-x="548" 
d="M235 1271q80 0 120 -60v-194q0 -12 -45 -15q-21 109 -50 109h-25q-49 -7 -49 -64v-15q0 -54 169 -245v-902q-37 -45 -90 -45h-20q-68 0 -104 50v229l10 10h20q20 -129 74 -129h15q46 0 55 89q0 68 -174 250v892q27 40 94 40zM116 1226h5v-872h-5q-100 113 -100 269
q0 143 75 244q-40 86 -40 155v15q0 122 65 189zM445 1176h10q25 -62 35 -144l-30 -10h-15v154zM400 1161h5l10 -10v-169l-10 -10l-5 5v184zM445 757h5q75 -86 75 -229q0 -121 -70 -229h-10v458zM400 737h5l10 -9v-868l-10 -10h-5v887zM445 289h10q45 -110 45 -185
q0 -108 -50 -184h-5v369zM116 124l5 -5v-224h-5q-75 86 -75 209q11 12 75 20z" />
    <glyph glyph-name="bullet" unicode="&#x2022;" horiz-adv-x="255" 
d="M51 652h39l2 -3v-221l-2 -2h-39l-3 2v221zM121 652h12l2 -3v-221l-2 -2h-12l-3 2v221zM146 652h10l3 -3v-221l-3 -2h-10l-3 2v221zM169 651h43l3 -3v-221l-3 -3h-43l-3 3v221zM49 422h2l1 -2l1 2h5l2 -2l1 2h4v-3h-16v3zM69 422h21l2 -3h-23v3zM94 422h3l2 -2l1 2h5v-3
h-9zM108 422h2v-3h-2v3zM116 422h5l1 -2l1 2h6l1 -2l1 2h6v-3h-21v3zM147 422h3v-3h-3v3z" />
    <glyph glyph-name="registered" unicode="&#xae;" horiz-adv-x="548" 
d="M236 1149l8 -8v-52l-8 -8h-8v60zM284 1141h12q56 0 116 -80v-84h-8q0 28 -72 84q-56 15 -56 20v52zM204 1129h4v-64l-52 -36h-4v72q0 12 52 28zM148 1105l4 -4v-72q-80 -93 -80 -252v-12q0 -147 80 -248v-64l-8 -8q-108 125 -108 284v92q0 124 80 252zM448 1053h8
q52 -119 52 -240v-28q0 -119 -52 -236h-8v76q24 114 24 160v20q0 70 -24 160v88zM428 1033h8v-96h-8v96zM236 977l8 -8v-220l-8 -8l-8 12v216zM284 969h12q68 0 68 -100v-20q0 -64 -52 -100q20 -12 64 -160l-4 -4h-40q-11 11 -44 128q-12 4 -12 24v224zM160 961h40l8 -8
v-212q0 -8 -24 -8v-148l-8 -8h-16l-8 8v368zM144 961h8v-376h-8v376zM428 597h8v-96h-8v96zM404 585h8v-76q0 -39 -84 -84l-32 -8h-12l-8 8v52q0 7 52 16q65 49 76 92zM156 509q52 -30 52 -36v-60h-4q-52 16 -52 28v68h4zM236 497l8 -12v-52l-8 -8l-8 8v56z" />
    <glyph glyph-name="copyright" unicode="&#xa9;" horiz-adv-x="656" 
d="M362 1159q69 0 144 -112v-116h-8q-24 81 -100 132q-44 13 -44 20v76h8zM318 1172l4 -4v-76q0 -7 -64 -16l-28 -20h-8v84q34 32 96 32zM190 1164l8 -8v-76q-66 -74 -72 -112h-8v104q0 30 72 92zM522 1051h8l12 -36v-132h-8l-12 56v112zM106 1036v-112q-32 -128 -32 -204
q0 -62 32 -212v-104h-8q-68 151 -68 296v40q0 145 68 296h8zM562 987h8q52 -139 52 -284q0 -132 -52 -276h-8v120l12 148v16l-12 148v128zM362 959q65 0 88 -140l-48 -16q-12 54 -48 84v72h8zM318 972l4 -4v-72q0 -7 -36 -12q-40 -40 -40 -140v-28q0 -133 52 -156
q24 0 24 -8v-68l-8 -8q-61 0 -92 76v344q18 67 92 76h4zM190 920h8v-340h-8q-28 88 -28 164q0 82 28 176zM406 647l44 -24v-4q-27 -148 -92 -148l-4 4v72q32 27 48 96zM534 579h8v-132l-12 -36h-8v108zM118 540h8q2 -34 72 -116v-76l-4 -4v-4q-76 59 -76 92v108zM498 499h8
v-104q0 -45 -116 -116l-28 -4h-8v76l72 40q56 56 72 108zM230 400q38 -36 92 -36v-76l-8 -8q-61 0 -92 36v76z" />
    <glyph glyph-name="acute" unicode="&#xb4;" horiz-adv-x="371" 
d="M151 1136h43l4 -4v-187q-21 -56 -36 -74h-11l-4 5v256zM216 1136h23l4 -4v-122l-27 -60h-4v182zM268 1136h56l2 -2h2l-60 -121h-5v119zM127 1096h4v-247l-4 -4h-57l-4 4z" />
    <glyph glyph-name="dieresis" unicode="&#xa8;" horiz-adv-x="570" 
d="M162 1134h13l6 -7v-198l-6 -7h-13l-7 7v198zM207 1134h26l7 -7v-198l-7 -7h-26l-6 7v198zM337 1134h78l7 -7v-198l-7 -7h-78l-6 7v198zM444 1134h7l6 -7v-198l-6 -7h-7l-6 7v198zM480 1130h36l6 -6v-198l-6 -7h-36l-6 7v198zM59 1140h65l12 -6v-199l-12 -6h-65l-12 6v199
z" />
    <glyph glyph-name="AE" unicode="&#xc6;" horiz-adv-x="1110" 
d="M906 1203h30l10 -10v-176l-10 -10h-30l-10 10v176zM976 1188h81l10 -10v-176l-10 -10h-81l-10 10v176zM508 1183h317l10 -10v-181l-10 -11h-156v-261h156l10 -10v-182l-10 -10h-156v-322h156l10 -10v-176l-10 -10h-282l-10 10v267h-25l-10 10v886zM463 1168l10 -10v-886
l-10 -10h-111l-10 10v730q0 43 40 166h81zM272 997h10v-710l-10 -10h-46q-57 -277 -70 -277h-126l-10 10zM906 740h30l10 -10v-181l-10 -10h-30l-10 10v181zM976 725h56l10 -10v-181l-10 -11h-56l-10 11v181zM906 216h30l10 -10v-176l-10 -10h-30l-10 10v176zM976 206h96
l10 -10v-181l-10 -10h-96l-10 10v181z" />
    <glyph glyph-name="yen" unicode="&#xa5;" horiz-adv-x="596" 
d="M481 1114h75l4 -4h5l-84 -300h-9v295zM428 1083h9l9 -9v-317l-18 -80h-9v397zM397 1074h9v-401l-9 -40l9 -9v-141l-9 -9h-44v-88h44l9 -9v-141q0 -9 -48 -9l-5 -4v-185l-9 -9h-92l-9 9v181q0 8 -22 8l-5 5v145q0 9 27 9v88q-27 0 -27 9v499h9l71 -296h4zM155 1088
q14 0 22 -75v-539l-9 -8h-102l-8 8v146l8 9h97l-123 454l4 5h111zM186 986v-534h-9v534h9zM481 655h53l9 -9v-145l-9 -9h-53l-9 9v145zM428 624h9l9 -8v-146l-9 -9h-9l-9 9v146zM481 404h53l9 -9v-141l-9 -9h-53l-9 9v141zM428 373h9l9 -9v-141l-9 -9h-9l-9 9v141zM186 355
v-150h-9v150h9zM66 377h102l9 -8v-142l-9 -8h-102l-8 8v142z" />
    <glyph glyph-name="mu" unicode="&#xb5;" horiz-adv-x="635" 
d="M410 997h24l8 -8v-744l-8 -8h-16l-8 8v76l-28 -64q-32 -40 -56 -40h-16l-12 12v144l4 4v4l20 -4q68 20 76 156l4 116v340zM190 993h4l8 -8v-368q0 -135 28 -220v-136h-8l-16 56h-4v-372l-8 -8h-4l-8 8v1040zM81 993h76l8 -8v-1040l-8 -8h-76l-8 8v1040zM510 981h32l8 -8
v-748l-8 -8h-32l-8 8v748zM462 965h4l8 -8v-744l-8 -8h-4l-8 8v744zM246 433h4l20 -20v-152h-8q-16 7 -16 28v144z" />
    <glyph glyph-name="ordfeminine" unicode="&#xaa;" horiz-adv-x="384" 
d="M164 1168h17l7 -7v-111q0 -7 -37 -11q-15 0 -31 -61h-7q-77 25 -77 31q14 87 50 132q39 27 78 27zM201 1168h11l6 -7v-128h-6l-17 13v115zM245 1165q51 -15 75 -55l10 -50v-474l-7 -7h-51q-10 0 -13 54q-14 -7 -14 -20h-6v332l10 13v7q0 34 -10 68v125zM349 1068v-257
q0 -166 14 -203l-3 -4h-11l-6 7v457h6zM215 948l3 -3v-335q-14 -24 -20 -24h-3v348q0 6 20 14zM184 934l4 -3v-345q-17 -24 -51 -24h-13q-79 0 -99 139l-3 37q0 138 95 173z" />
    <glyph glyph-name="ordmasculine" unicode="&#xba;" horiz-adv-x="458" 
d="M209 1150q59 0 97 -47v-559q0 -24 -85 -47h-16q-94 0 -133 114v417q0 60 85 110q20 12 52 12zM342 1091h4q24 -22 24 -43v-453q0 -21 -24 -43h-4v539zM386 1040h8q33 -88 33 -161v-111q0 -74 -33 -165h-8v437zM52 1024h8v-401h-8q-28 103 -28 204q0 87 28 197z" />
    <glyph glyph-name="ae" unicode="&#xe6;" horiz-adv-x="1010" 
d="M631 932q56 0 61 -22v-503l-11 -12h-151q18 -218 95 -218h34l33 17v-184q0 -17 -61 -17q-86 0 -174 123q-39 -55 -55 -62h-6v436l6 157l-6 128v135l11 11q41 -18 84 -67h6q44 78 134 78zM731 891v-508h-11v508h11zM273 893h61l12 -11v-196h-6q-29 28 -50 28h-28
q-73 -19 -73 -95v-11h-11v251q22 34 95 34zM860 864q112 -125 112 -481l-6 -6h-106l-11 11v464zM776 852l17 -22v-475l-11 -11h-6l-11 11v486zM150 871v-235l-11 -11l-95 39q49 207 106 207zM340 552l6 -6v-536q-61 -50 -107 -50h-44l-17 17v502q4 9 162 73zM139 490h11
v-497l-6 -5v-6q-117 64 -117 262q0 170 112 246zM854 277q106 -32 106 -45q-28 -148 -100 -218h-11v251l5 6v6zM782 237h11v-262l-17 -17h-11v201zM731 193v-201h-11v201h11z" />
    <glyph glyph-name="questiondown" unicode="&#xbf;" horiz-adv-x="639" 
d="M306 1172h84l10 -9v-228l-10 -10h-84l-9 10v228zM232 1139h19l9 -9v-233l-9 -9h-19l-9 9v233zM306 837h84q10 0 10 -14q0 -245 -94 -373h-9v378zM246 804h5l9 -9v-382l-33 -65h-9v275q19 48 19 102v70zM191 646h5v-265q-42 -87 -42 -131v-42q0 -47 42 -121v-190l-5 -5v-4
q-172 105 -172 358q0 171 172 400zM493 255q111 -21 111 -37q0 -185 -121 -316l-14 -5v265q6 93 24 93zM437 157h9v-246q-43 -42 -107 -42h-33l-9 9v167l9 10h33q54 0 98 98v4zM223 45l37 -27v-172q0 -10 -14 -10q-28 11 -28 19v190h5z" />
    <glyph glyph-name="exclamdown" unicode="&#xa1;" horiz-adv-x="289" 
d="M128 1136v-222h-10v222h10zM215 1141h10l9 -10v-212l-9 -10h-10l-10 10v212zM57 1136h58l9 -10v-217l-9 -10h-58l-10 10v217zM181 1131l10 -9v-218l-10 -10l-10 10v218zM128 817v-913h-10v913h10zM115 812l9 -9v-904l-9 -10h-63l-10 10v174l34 734l5 5h34zM181 807l5 -4
l5 -387v-522l-10 -10l-10 10v904zM205 633h10v-4l24 -561v-154l-10 -10h-14l-10 10v719z" />
    <glyph glyph-name="logicalnot" unicode="&#xac;" horiz-adv-x="769" 
d="M609 877l8 -7v-576l-8 -7h-28l-8 7v53l-4 527l4 3h36zM645 877h80l8 -7v-576l-8 -7h-80l-8 7v576zM424 882h104l8 -8v-240l-8 -8h-104l-8 8v240zM40 862h184l8 -8v-240l-8 -8h-184l-8 8v240zM276 862h16l8 -8v-240l-8 -8h-16l-8 8v240zM324 846h56l8 -8v-240l-8 -8h-56
l-8 8v240z" />
    <glyph glyph-name="Euro" unicode="&#x20ac;" horiz-adv-x="635" 
d="M448 1224q105 0 147 -52l-25 -217h-3q-44 60 -101 60h-18l-7 7v195zM311 1221l3 -3v-216q-80 -101 -80 -206h73l7 -7v-112l-7 -7h-84v-111h84l7 -7v-112l-7 -7h-73q0 -114 80 -209v-220q-83 20 -160 178q-60 161 -60 251h-59l-7 7q7 119 17 119h39v111h-49l-7 7
q8 119 17 119h49q31 222 101 321q71 91 116 104zM408 1211l4 -4v-195q0 -6 -42 -21l-14 -10h-4v212q3 13 56 18zM448 781h95l7 -7q-9 -119 -18 -119h-84l-7 7v112zM359 771h46l7 -7v-115l-7 -7h-46l-7 7v115zM448 544h70l4 -4h3q-14 -122 -21 -122h-56l-7 7v112zM359 534h46
l7 -7v-111l-7 -7h-46l-7 7v111zM591 265h4v-238q-60 -55 -126 -55h-21l-7 7v191q0 6 63 14q50 25 87 81zM352 192h4l56 -31v-192q0 -7 -11 -7q-49 9 -49 18v212z" />
    <glyph glyph-name="guilsinglleft" unicode="&#x2039;" horiz-adv-x="682" 
 />
    <glyph glyph-name="guilsinglright" unicode="&#x203a;" horiz-adv-x="682" 
 />
    <glyph glyph-name="uniF001" unicode="&#xf001;" horiz-adv-x="1024" 
 />
    <glyph glyph-name="uniF001" unicode="&#xfb01;" horiz-adv-x="1024" 
 />
    <glyph glyph-name="uniF002" unicode="&#xf002;" horiz-adv-x="1024" 
 />
    <glyph glyph-name="uniF002" unicode="&#xfb02;" horiz-adv-x="1024" 
 />
    <glyph glyph-name="daggerdbl" unicode="&#x2021;" 
 />
    <glyph glyph-name="periodcentered" unicode="&#xb7;" horiz-adv-x="569" 
 />
    <glyph glyph-name="periodcentered" unicode="&#x2219;" horiz-adv-x="569" 
 />
    <glyph glyph-name="quotesinglbase" unicode="&#x201a;" horiz-adv-x="455" 
 />
    <glyph glyph-name="quotedblbase" unicode="&#x201e;" horiz-adv-x="682" 
 />
    <glyph glyph-name="perthousand" unicode="&#x2030;" horiz-adv-x="2048" 
 />
    <glyph glyph-name="Acircumflex" unicode="&#xc2;" horiz-adv-x="1366" 
 />
    <glyph glyph-name="Ecircumflex" unicode="&#xca;" horiz-adv-x="1366" 
 />
    <glyph glyph-name="Aacute" unicode="&#xc1;" horiz-adv-x="1366" 
 />
    <glyph glyph-name="Edieresis" unicode="&#xcb;" horiz-adv-x="1366" 
 />
    <glyph glyph-name="Egrave" unicode="&#xc8;" horiz-adv-x="1366" 
 />
    <glyph glyph-name="Iacute" unicode="&#xcd;" horiz-adv-x="569" 
 />
    <glyph glyph-name="Icircumflex" unicode="&#xce;" horiz-adv-x="569" 
 />
    <glyph glyph-name="Idieresis" unicode="&#xcf;" horiz-adv-x="569" 
 />
    <glyph glyph-name="Igrave" unicode="&#xcc;" horiz-adv-x="569" 
 />
    <glyph glyph-name="Oacute" unicode="&#xd3;" horiz-adv-x="1593" 
 />
    <glyph glyph-name="Ocircumflex" unicode="&#xd4;" horiz-adv-x="1593" 
 />
    <glyph glyph-name="Ograve" unicode="&#xd2;" horiz-adv-x="1593" 
 />
    <glyph glyph-name="Uacute" unicode="&#xda;" horiz-adv-x="1479" 
 />
    <glyph glyph-name="Ucircumflex" unicode="&#xdb;" horiz-adv-x="1479" 
 />
    <glyph glyph-name="Ugrave" unicode="&#xd9;" horiz-adv-x="1479" 
 />
    <glyph glyph-name="dotlessi" unicode="&#x131;" horiz-adv-x="569" 
 />
    <glyph glyph-name="circumflex" unicode="&#x2c6;" horiz-adv-x="682" 
 />
    <glyph glyph-name="tilde" unicode="&#x2dc;" horiz-adv-x="682" 
 />
    <glyph glyph-name="uni02C9" unicode="&#x2c9;" horiz-adv-x="682" 
 />
    <glyph glyph-name="breve" unicode="&#x2d8;" horiz-adv-x="682" 
 />
    <glyph glyph-name="dotaccent" unicode="&#x2d9;" horiz-adv-x="682" 
 />
    <glyph glyph-name="ring" unicode="&#x2da;" horiz-adv-x="682" 
 />
    <glyph glyph-name="cedilla" unicode="&#xb8;" horiz-adv-x="682" 
 />
    <glyph glyph-name="hungarumlaut" unicode="&#x2dd;" horiz-adv-x="682" 
 />
    <glyph glyph-name="ogonek" unicode="&#x2db;" horiz-adv-x="682" 
 />
    <glyph glyph-name="caron" unicode="&#x2c7;" horiz-adv-x="682" 
 />
    <glyph glyph-name="Lslash" unicode="&#x141;" 
 />
    <glyph glyph-name="lslash" unicode="&#x142;" horiz-adv-x="455" 
 />
    <glyph glyph-name="Scaron" unicode="&#x160;" horiz-adv-x="1366" 
 />
    <glyph glyph-name="scaron" unicode="&#x161;" horiz-adv-x="1024" 
 />
    <glyph glyph-name="Zcaron" unicode="&#x17d;" horiz-adv-x="1251" 
 />
    <glyph glyph-name="zcaron" unicode="&#x17e;" horiz-adv-x="1024" 
 />
    <glyph glyph-name="brokenbar" unicode="&#xa6;" horiz-adv-x="532" 
 />
    <glyph glyph-name="Eth" unicode="&#xd0;" horiz-adv-x="1479" 
 />
    <glyph glyph-name="eth" unicode="&#xf0;" 
 />
    <glyph glyph-name="Yacute" unicode="&#xdd;" horiz-adv-x="1366" 
 />
    <glyph glyph-name="yacute" unicode="&#xfd;" horiz-adv-x="1024" 
 />
    <glyph glyph-name="Thorn" unicode="&#xde;" horiz-adv-x="1366" 
 />
    <glyph glyph-name="thorn" unicode="&#xfe;" 
 />
    <glyph glyph-name="minus" unicode="&#x2212;" horiz-adv-x="1196" 
 />
    <glyph glyph-name="multiply" unicode="&#xd7;" horiz-adv-x="1196" 
 />
    <glyph glyph-name="uni00B9" unicode="&#xb9;" horiz-adv-x="682" 
 />
    <glyph glyph-name="uni00B2" unicode="&#xb2;" horiz-adv-x="682" 
 />
    <glyph glyph-name="uni00B3" unicode="&#xb3;" horiz-adv-x="682" 
 />
    <glyph glyph-name="onehalf" unicode="&#xbd;" horiz-adv-x="1708" 
 />
    <glyph glyph-name="onequarter" unicode="&#xbc;" horiz-adv-x="1708" 
 />
    <glyph glyph-name="threequarters" unicode="&#xbe;" horiz-adv-x="1708" 
 />
    <glyph glyph-name="franc" unicode="&#x20a3;" 
 />
    <glyph glyph-name="Gbreve" unicode="&#x11e;" horiz-adv-x="1593" 
 />
    <glyph glyph-name="gbreve" unicode="&#x11f;" 
 />
    <glyph glyph-name="Idotaccent" unicode="&#x130;" horiz-adv-x="569" 
 />
    <glyph glyph-name="Scedilla" unicode="&#x15e;" horiz-adv-x="1366" 
 />
    <glyph glyph-name="scedilla" unicode="&#x15f;" horiz-adv-x="1024" 
 />
    <glyph glyph-name="Cacute" unicode="&#x106;" horiz-adv-x="1479" 
 />
    <glyph glyph-name="cacute" unicode="&#x107;" horiz-adv-x="1024" 
 />
    <glyph glyph-name="Ccaron" unicode="&#x10c;" horiz-adv-x="1479" 
 />
    <glyph glyph-name="ccaron" unicode="&#x10d;" horiz-adv-x="1024" 
 />
    <glyph glyph-name="dcroat" unicode="&#x111;" 
 />
    <glyph glyph-name="currency" unicode="&#xa4;" 
 />
    <glyph glyph-name="macron" unicode="&#xaf;" horiz-adv-x="1131" 
 />
    <glyph glyph-name="Amacron" unicode="&#x100;" horiz-adv-x="1366" 
 />
    <glyph glyph-name="amacron" unicode="&#x101;" 
 />
    <glyph glyph-name="Abreve" unicode="&#x102;" horiz-adv-x="1366" 
 />
    <glyph glyph-name="abreve" unicode="&#x103;" 
 />
    <glyph glyph-name="Aogonek" unicode="&#x104;" horiz-adv-x="1366" 
 />
    <glyph glyph-name="aogonek" unicode="&#x105;" 
 />
    <glyph glyph-name="Ccircumflex" unicode="&#x108;" horiz-adv-x="1479" 
 />
    <glyph glyph-name="ccircumflex" unicode="&#x109;" horiz-adv-x="1024" 
 />
    <glyph glyph-name="Cdotaccent" unicode="&#x10a;" horiz-adv-x="1479" 
 />
    <glyph glyph-name="cdotaccent" unicode="&#x10b;" horiz-adv-x="1024" 
 />
    <glyph glyph-name="Dcaron" unicode="&#x10e;" horiz-adv-x="1479" 
 />
    <glyph glyph-name="dcaron" unicode="&#x10f;" horiz-adv-x="1259" 
 />
    <glyph glyph-name="Dcroat" unicode="&#x110;" horiz-adv-x="1479" 
 />
    <glyph glyph-name="Emacron" unicode="&#x112;" horiz-adv-x="1366" 
 />
    <glyph glyph-name="emacron" unicode="&#x113;" 
 />
    <glyph glyph-name="Ebreve" unicode="&#x114;" horiz-adv-x="1366" 
 />
    <glyph glyph-name="ebreve" unicode="&#x115;" 
 />
    <glyph glyph-name="Edotaccent" unicode="&#x116;" horiz-adv-x="1366" 
 />
    <glyph glyph-name="edotaccent" unicode="&#x117;" 
 />
    <glyph glyph-name="Eogonek" unicode="&#x118;" horiz-adv-x="1366" 
 />
    <glyph glyph-name="eogonek" unicode="&#x119;" 
 />
    <glyph glyph-name="Ecaron" unicode="&#x11a;" horiz-adv-x="1366" 
 />
    <glyph glyph-name="ecaron" unicode="&#x11b;" 
 />
    <glyph glyph-name="Gcircumflex" unicode="&#x11c;" horiz-adv-x="1593" 
 />
    <glyph glyph-name="gcircumflex" unicode="&#x11d;" 
 />
    <glyph glyph-name="Gdotaccent" unicode="&#x120;" horiz-adv-x="1593" 
 />
    <glyph glyph-name="gdotaccent" unicode="&#x121;" 
 />
    <glyph glyph-name="Gcommaaccent" unicode="&#x122;" horiz-adv-x="1593" 
 />
    <glyph glyph-name="gcommaaccent" unicode="&#x123;" 
 />
    <glyph glyph-name="Hcircumflex" unicode="&#x124;" horiz-adv-x="1479" 
 />
    <glyph glyph-name="hcircumflex" unicode="&#x125;" 
 />
    <glyph glyph-name="Hbar" unicode="&#x126;" horiz-adv-x="1479" 
 />
    <glyph glyph-name="hbar" unicode="&#x127;" 
 />
    <glyph glyph-name="Itilde" unicode="&#x128;" horiz-adv-x="569" 
 />
    <glyph glyph-name="itilde" unicode="&#x129;" horiz-adv-x="569" 
 />
    <glyph glyph-name="Imacron" unicode="&#x12a;" horiz-adv-x="569" 
 />
    <glyph glyph-name="imacron" unicode="&#x12b;" horiz-adv-x="569" 
 />
    <glyph glyph-name="Ibreve" unicode="&#x12c;" horiz-adv-x="569" 
 />
    <glyph glyph-name="ibreve" unicode="&#x12d;" horiz-adv-x="569" 
 />
    <glyph glyph-name="Iogonek" unicode="&#x12e;" horiz-adv-x="569" 
 />
    <glyph glyph-name="iogonek" unicode="&#x12f;" horiz-adv-x="455" 
 />
    <glyph glyph-name="IJ" unicode="&#x132;" horiz-adv-x="1505" 
 />
    <glyph glyph-name="ij" unicode="&#x133;" horiz-adv-x="909" 
 />
    <glyph glyph-name="Jcircumflex" unicode="&#x134;" horiz-adv-x="1024" 
 />
    <glyph glyph-name="jcircumflex" unicode="&#x135;" horiz-adv-x="455" 
 />
    <glyph glyph-name="Kcommaaccent" unicode="&#x136;" horiz-adv-x="1366" 
 />
    <glyph glyph-name="kcommaaccent" unicode="&#x137;" horiz-adv-x="1024" 
 />
    <glyph glyph-name="kgreenlandic" unicode="&#x138;" horiz-adv-x="1024" 
 />
    <glyph glyph-name="Lacute" unicode="&#x139;" 
 />
    <glyph glyph-name="lacute" unicode="&#x13a;" horiz-adv-x="455" 
 />
    <glyph glyph-name="Lcommaaccent" unicode="&#x13b;" 
 />
    <glyph glyph-name="lcommaaccent" unicode="&#x13c;" horiz-adv-x="455" 
 />
    <glyph glyph-name="Lcaron" unicode="&#x13d;" 
 />
    <glyph glyph-name="lcaron" unicode="&#x13e;" horiz-adv-x="597" 
 />
    <glyph glyph-name="Ldot" unicode="&#x13f;" 
 />
    <glyph glyph-name="ldot" unicode="&#x140;" horiz-adv-x="684" 
 />
    <glyph glyph-name="Nacute" unicode="&#x143;" horiz-adv-x="1479" 
 />
    <glyph glyph-name="nacute" unicode="&#x144;" 
 />
    <glyph glyph-name="Ncommaaccent" unicode="&#x145;" horiz-adv-x="1479" 
 />
    <glyph glyph-name="ncommaaccent" unicode="&#x146;" 
 />
    <glyph glyph-name="Ncaron" unicode="&#x147;" horiz-adv-x="1479" 
 />
    <glyph glyph-name="ncaron" unicode="&#x148;" 
 />
    <glyph glyph-name="napostrophe" unicode="&#x149;" horiz-adv-x="1237" 
 />
    <glyph glyph-name="Eng" unicode="&#x14a;" horiz-adv-x="1481" 
 />
    <glyph glyph-name="eng" unicode="&#x14b;" 
 />
    <glyph glyph-name="Omacron" unicode="&#x14c;" horiz-adv-x="1593" 
 />
    <glyph glyph-name="omacron" unicode="&#x14d;" 
 />
    <glyph glyph-name="Obreve" unicode="&#x14e;" horiz-adv-x="1593" 
 />
    <glyph glyph-name="obreve" unicode="&#x14f;" 
 />
    <glyph glyph-name="Ohungarumlaut" unicode="&#x150;" horiz-adv-x="1593" 
 />
    <glyph glyph-name="ohungarumlaut" unicode="&#x151;" 
 />
    <glyph glyph-name="Racute" unicode="&#x154;" horiz-adv-x="1479" 
 />
    <glyph glyph-name="racute" unicode="&#x155;" horiz-adv-x="682" 
 />
    <glyph glyph-name="Rcommaaccent" unicode="&#x156;" horiz-adv-x="1479" 
 />
    <glyph glyph-name="rcommaaccent" unicode="&#x157;" horiz-adv-x="682" 
 />
    <glyph glyph-name="Rcaron" unicode="&#x158;" horiz-adv-x="1479" 
 />
    <glyph glyph-name="rcaron" unicode="&#x159;" horiz-adv-x="682" 
 />
    <glyph glyph-name="Sacute" unicode="&#x15a;" horiz-adv-x="1366" 
 />
    <glyph glyph-name="sacute" unicode="&#x15b;" horiz-adv-x="1024" 
 />
    <glyph glyph-name="Scircumflex" unicode="&#x15c;" horiz-adv-x="1366" 
 />
    <glyph glyph-name="scircumflex" unicode="&#x15d;" horiz-adv-x="1024" 
 />
    <glyph glyph-name="Tcommaaccent" unicode="&#x162;" horiz-adv-x="1251" 
 />
    <glyph glyph-name="tcommaaccent" unicode="&#x163;" horiz-adv-x="569" 
 />
    <glyph glyph-name="Tcaron" unicode="&#x164;" horiz-adv-x="1251" 
 />
    <glyph glyph-name="tcaron" unicode="&#x165;" horiz-adv-x="768" 
 />
    <glyph glyph-name="Tbar" unicode="&#x166;" horiz-adv-x="1251" 
 />
    <glyph glyph-name="tbar" unicode="&#x167;" horiz-adv-x="569" 
 />
    <glyph glyph-name="Utilde" unicode="&#x168;" horiz-adv-x="1479" 
 />
    <glyph glyph-name="utilde" unicode="&#x169;" 
 />
    <glyph glyph-name="Umacron" unicode="&#x16a;" horiz-adv-x="1479" 
 />
    <glyph glyph-name="umacron" unicode="&#x16b;" 
 />
    <glyph glyph-name="Ubreve" unicode="&#x16c;" horiz-adv-x="1479" 
 />
    <glyph glyph-name="ubreve" unicode="&#x16d;" 
 />
    <glyph glyph-name="Uring" unicode="&#x16e;" horiz-adv-x="1479" 
 />
    <glyph glyph-name="uring" unicode="&#x16f;" 
 />
    <glyph glyph-name="Uhungarumlaut" unicode="&#x170;" horiz-adv-x="1479" 
 />
    <glyph glyph-name="uhungarumlaut" unicode="&#x171;" 
 />
    <glyph glyph-name="Uogonek" unicode="&#x172;" horiz-adv-x="1479" 
 />
    <glyph glyph-name="uogonek" unicode="&#x173;" 
 />
    <glyph glyph-name="Wcircumflex" unicode="&#x174;" horiz-adv-x="1933" 
 />
    <glyph glyph-name="wcircumflex" unicode="&#x175;" horiz-adv-x="1479" 
 />
    <glyph glyph-name="Ycircumflex" unicode="&#x176;" horiz-adv-x="1366" 
 />
    <glyph glyph-name="ycircumflex" unicode="&#x177;" horiz-adv-x="1024" 
 />
    <glyph glyph-name="Zacute" unicode="&#x179;" horiz-adv-x="1251" 
 />
    <glyph glyph-name="zacute" unicode="&#x17a;" horiz-adv-x="1024" 
 />
    <glyph glyph-name="Zdotaccent" unicode="&#x17b;" horiz-adv-x="1251" 
 />
    <glyph glyph-name="zdotaccent" unicode="&#x17c;" horiz-adv-x="1024" 
 />
    <glyph glyph-name="longs" unicode="&#x17f;" horiz-adv-x="455" 
 />
    <glyph glyph-name="Aringacute" unicode="&#x1fa;" horiz-adv-x="1366" 
 />
    <glyph glyph-name="aringacute" unicode="&#x1fb;" 
 />
    <glyph glyph-name="AEacute" unicode="&#x1fc;" horiz-adv-x="2048" 
 />
    <glyph glyph-name="aeacute" unicode="&#x1fd;" horiz-adv-x="1821" 
 />
    <glyph glyph-name="Oslashacute" unicode="&#x1fe;" horiz-adv-x="1593" 
 />
    <glyph glyph-name="oslashacute" unicode="&#x1ff;" horiz-adv-x="1251" 
 />
    <glyph glyph-name="tonos" unicode="&#x384;" horiz-adv-x="682" 
 />
    <glyph glyph-name="dieresistonos" unicode="&#x385;" horiz-adv-x="682" 
 />
    <glyph glyph-name="Alphatonos" unicode="&#x386;" horiz-adv-x="1367" 
 />
    <glyph glyph-name="anoteleia" unicode="&#x387;" horiz-adv-x="569" 
 />
    <glyph glyph-name="Epsilontonos" unicode="&#x388;" horiz-adv-x="1606" 
 />
    <glyph glyph-name="Etatonos" unicode="&#x389;" horiz-adv-x="1716" 
 />
    <glyph glyph-name="Iotatonos" unicode="&#x38a;" horiz-adv-x="786" 
 />
    <glyph glyph-name="Omicrontonos" unicode="&#x38c;" horiz-adv-x="1586" 
 />
    <glyph glyph-name="Upsilontonos" unicode="&#x38e;" horiz-adv-x="1752" 
 />
    <glyph glyph-name="Omegatonos" unicode="&#x38f;" horiz-adv-x="1541" 
 />
    <glyph glyph-name="iotadieresistonos" unicode="&#x390;" horiz-adv-x="455" 
 />
    <glyph glyph-name="Alpha" unicode="&#x391;" horiz-adv-x="1366" 
 />
    <glyph glyph-name="Beta" unicode="&#x392;" horiz-adv-x="1366" 
 />
    <glyph glyph-name="Gamma" unicode="&#x393;" horiz-adv-x="1128" 
 />
    <glyph glyph-name="uni0394" unicode="&#x394;" horiz-adv-x="1368" 
 />
    <glyph glyph-name="Epsilon" unicode="&#x395;" horiz-adv-x="1366" 
 />
    <glyph glyph-name="Zeta" unicode="&#x396;" horiz-adv-x="1251" 
 />
    <glyph glyph-name="Eta" unicode="&#x397;" horiz-adv-x="1479" 
 />
    <glyph glyph-name="Theta" unicode="&#x398;" horiz-adv-x="1593" 
 />
    <glyph glyph-name="Iota" unicode="&#x399;" horiz-adv-x="569" 
 />
    <glyph glyph-name="Kappa" unicode="&#x39a;" horiz-adv-x="1366" 
 />
    <glyph glyph-name="Lambda" unicode="&#x39b;" horiz-adv-x="1368" 
 />
    <glyph glyph-name="Mu" unicode="&#x39c;" horiz-adv-x="1706" 
 />
    <glyph glyph-name="Nu" unicode="&#x39d;" horiz-adv-x="1479" 
 />
    <glyph glyph-name="Xi" unicode="&#x39e;" horiz-adv-x="1331" 
 />
    <glyph glyph-name="Omicron" unicode="&#x39f;" horiz-adv-x="1593" 
 />
    <glyph glyph-name="Pi" unicode="&#x3a0;" horiz-adv-x="1479" 
 />
    <glyph glyph-name="Rho" unicode="&#x3a1;" horiz-adv-x="1366" 
 />
    <glyph glyph-name="Sigma" unicode="&#x3a3;" horiz-adv-x="1266" 
 />
    <glyph glyph-name="Tau" unicode="&#x3a4;" horiz-adv-x="1251" 
 />
    <glyph glyph-name="Upsilon" unicode="&#x3a5;" horiz-adv-x="1366" 
 />
    <glyph glyph-name="Phi" unicode="&#x3a6;" horiz-adv-x="1634" 
 />
    <glyph glyph-name="Chi" unicode="&#x3a7;" horiz-adv-x="1366" 
 />
    <glyph glyph-name="Psi" unicode="&#x3a8;" horiz-adv-x="1711" 
 />
    <glyph glyph-name="uni03A9" unicode="&#x3a9;" horiz-adv-x="1531" 
 />
    <glyph glyph-name="Iotadieresis" unicode="&#x3aa;" horiz-adv-x="569" 
 />
    <glyph glyph-name="Upsilondieresis" unicode="&#x3ab;" horiz-adv-x="1366" 
 />
    <glyph glyph-name="alphatonos" unicode="&#x3ac;" horiz-adv-x="1184" 
 />
    <glyph glyph-name="epsilontonos" unicode="&#x3ad;" horiz-adv-x="913" 
 />
    <glyph glyph-name="etatonos" unicode="&#x3ae;" 
 />
    <glyph glyph-name="iotatonos" unicode="&#x3af;" horiz-adv-x="455" 
 />
    <glyph glyph-name="upsilondieresistonos" unicode="&#x3b0;" horiz-adv-x="1120" 
 />
    <glyph glyph-name="alpha" unicode="&#x3b1;" horiz-adv-x="1184" 
 />
    <glyph glyph-name="beta" unicode="&#x3b2;" horiz-adv-x="1178" 
 />
    <glyph glyph-name="gamma" unicode="&#x3b3;" horiz-adv-x="1024" 
 />
    <glyph glyph-name="delta" unicode="&#x3b4;" horiz-adv-x="1140" 
 />
    <glyph glyph-name="epsilon" unicode="&#x3b5;" horiz-adv-x="913" 
 />
    <glyph glyph-name="zeta" unicode="&#x3b6;" horiz-adv-x="903" 
 />
    <glyph glyph-name="eta" unicode="&#x3b7;" 
 />
    <glyph glyph-name="theta" unicode="&#x3b8;" 
 />
    <glyph glyph-name="iota" unicode="&#x3b9;" horiz-adv-x="455" 
 />
    <glyph glyph-name="kappa" unicode="&#x3ba;" horiz-adv-x="1024" 
 />
    <glyph glyph-name="lambda" unicode="&#x3bb;" horiz-adv-x="1024" 
 />
    <glyph glyph-name="uni03BC" unicode="&#x3bc;" horiz-adv-x="1180" 
 />
    <glyph glyph-name="nu" unicode="&#x3bd;" horiz-adv-x="1024" 
 />
    <glyph glyph-name="xi" unicode="&#x3be;" horiz-adv-x="917" 
 />
    <glyph glyph-name="omicron" unicode="&#x3bf;" 
 />
    <glyph glyph-name="pi" unicode="&#x3c0;" horiz-adv-x="1413" 
 />
    <glyph glyph-name="rho" unicode="&#x3c1;" horiz-adv-x="1165" 
 />
    <glyph glyph-name="sigma1" unicode="&#x3c2;" horiz-adv-x="987" 
 />
    <glyph glyph-name="sigma" unicode="&#x3c3;" horiz-adv-x="1264" 
 />
    <glyph glyph-name="tau" unicode="&#x3c4;" horiz-adv-x="809" 
 />
    <glyph glyph-name="upsilon" unicode="&#x3c5;" horiz-adv-x="1120" 
 />
    <glyph glyph-name="phi" unicode="&#x3c6;" horiz-adv-x="1328" 
 />
    <glyph glyph-name="chi" unicode="&#x3c7;" horiz-adv-x="1075" 
 />
    <glyph glyph-name="psi" unicode="&#x3c8;" horiz-adv-x="1460" 
 />
    <glyph glyph-name="omega" unicode="&#x3c9;" horiz-adv-x="1599" 
 />
    <glyph glyph-name="iotadieresis" unicode="&#x3ca;" horiz-adv-x="455" 
 />
    <glyph glyph-name="upsilondieresis" unicode="&#x3cb;" horiz-adv-x="1120" 
 />
    <glyph glyph-name="omicrontonos" unicode="&#x3cc;" 
 />
    <glyph glyph-name="upsilontonos" unicode="&#x3cd;" horiz-adv-x="1120" 
 />
    <glyph glyph-name="omegatonos" unicode="&#x3ce;" horiz-adv-x="1599" 
 />
    <glyph glyph-name="afii10023" unicode="&#x401;" horiz-adv-x="1367" 
 />
    <glyph glyph-name="afii10051" unicode="&#x402;" horiz-adv-x="1771" 
 />
    <glyph glyph-name="afii10052" unicode="&#x403;" horiz-adv-x="1109" 
 />
    <glyph glyph-name="afii10053" unicode="&#x404;" horiz-adv-x="1472" 
 />
    <glyph glyph-name="afii10054" unicode="&#x405;" horiz-adv-x="1366" 
 />
    <glyph glyph-name="afii10055" unicode="&#x406;" horiz-adv-x="569" 
 />
    <glyph glyph-name="afii10056" unicode="&#x407;" horiz-adv-x="569" 
 />
    <glyph glyph-name="afii10057" unicode="&#x408;" horiz-adv-x="1024" 
 />
    <glyph glyph-name="afii10058" unicode="&#x409;" horiz-adv-x="2165" 
 />
    <glyph glyph-name="afii10059" unicode="&#x40a;" horiz-adv-x="2069" 
 />
    <glyph glyph-name="afii10060" unicode="&#x40b;" horiz-adv-x="1749" 
 />
    <glyph glyph-name="afii10061" unicode="&#x40c;" horiz-adv-x="1193" 
 />
    <glyph glyph-name="afii10062" unicode="&#x40e;" horiz-adv-x="1301" 
 />
    <glyph glyph-name="afii10145" unicode="&#x40f;" horiz-adv-x="1472" 
 />
    <glyph glyph-name="afii10017" unicode="&#x410;" horiz-adv-x="1366" 
 />
    <glyph glyph-name="afii10018" unicode="&#x411;" horiz-adv-x="1344" 
 />
    <glyph glyph-name="afii10019" unicode="&#x412;" horiz-adv-x="1366" 
 />
    <glyph glyph-name="afii10020" unicode="&#x413;" horiz-adv-x="1109" 
 />
    <glyph glyph-name="afii10021" unicode="&#x414;" horiz-adv-x="1387" 
 />
    <glyph glyph-name="afii10022" unicode="&#x415;" horiz-adv-x="1366" 
 />
    <glyph glyph-name="afii10024" unicode="&#x416;" horiz-adv-x="1891" 
 />
    <glyph glyph-name="afii10025" unicode="&#x417;" horiz-adv-x="1237" 
 />
    <glyph glyph-name="afii10026" unicode="&#x418;" horiz-adv-x="1472" 
 />
    <glyph glyph-name="afii10027" unicode="&#x419;" horiz-adv-x="1472" 
 />
    <glyph glyph-name="afii10028" unicode="&#x41a;" horiz-adv-x="1193" 
 />
    <glyph glyph-name="afii10029" unicode="&#x41b;" horiz-adv-x="1344" 
 />
    <glyph glyph-name="afii10030" unicode="&#x41c;" horiz-adv-x="1706" 
 />
    <glyph glyph-name="afii10031" unicode="&#x41d;" horiz-adv-x="1479" 
 />
    <glyph glyph-name="afii10032" unicode="&#x41e;" horiz-adv-x="1593" 
 />
    <glyph glyph-name="afii10033" unicode="&#x41f;" horiz-adv-x="1472" 
 />
    <glyph glyph-name="afii10034" unicode="&#x420;" horiz-adv-x="1366" 
 />
    <glyph glyph-name="afii10035" unicode="&#x421;" horiz-adv-x="1479" 
 />
    <glyph glyph-name="afii10036" unicode="&#x422;" horiz-adv-x="1251" 
 />
    <glyph glyph-name="afii10037" unicode="&#x423;" horiz-adv-x="1301" 
 />
    <glyph glyph-name="afii10038" unicode="&#x424;" horiz-adv-x="1557" 
 />
    <glyph glyph-name="afii10039" unicode="&#x425;" horiz-adv-x="1366" 
 />
    <glyph glyph-name="afii10040" unicode="&#x426;" horiz-adv-x="1515" 
 />
    <glyph glyph-name="afii10041" unicode="&#x427;" horiz-adv-x="1365" 
 />
    <glyph glyph-name="afii10042" unicode="&#x428;" horiz-adv-x="1877" 
 />
    <glyph glyph-name="afii10043" unicode="&#x429;" horiz-adv-x="1920" 
 />
    <glyph glyph-name="afii10044" unicode="&#x42a;" horiz-adv-x="1621" 
 />
    <glyph glyph-name="afii10045" unicode="&#x42b;" horiz-adv-x="1813" 
 />
    <glyph glyph-name="afii10046" unicode="&#x42c;" horiz-adv-x="1344" 
 />
    <glyph glyph-name="afii10047" unicode="&#x42d;" horiz-adv-x="1472" 
 />
    <glyph glyph-name="afii10048" unicode="&#x42e;" horiz-adv-x="2069" 
 />
    <glyph glyph-name="afii10049" unicode="&#x42f;" horiz-adv-x="1479" 
 />
    <glyph glyph-name="afii10065" unicode="&#x430;" 
 />
    <glyph glyph-name="afii10066" unicode="&#x431;" horiz-adv-x="1173" 
 />
    <glyph glyph-name="afii10067" unicode="&#x432;" horiz-adv-x="1088" 
 />
    <glyph glyph-name="afii10068" unicode="&#x433;" horiz-adv-x="747" 
 />
    <glyph glyph-name="afii10069" unicode="&#x434;" horiz-adv-x="1195" 
 />
    <glyph glyph-name="afii10070" unicode="&#x435;" 
 />
    <glyph glyph-name="afii10072" unicode="&#x436;" horiz-adv-x="1370" 
 />
    <glyph glyph-name="afii10073" unicode="&#x437;" horiz-adv-x="939" 
 />
    <glyph glyph-name="afii10074" unicode="&#x438;" horiz-adv-x="1144" 
 />
    <glyph glyph-name="afii10075" unicode="&#x439;" horiz-adv-x="1144" 
 />
    <glyph glyph-name="afii10076" unicode="&#x43a;" horiz-adv-x="896" 
 />
    <glyph glyph-name="afii10077" unicode="&#x43b;" horiz-adv-x="1195" 
 />
    <glyph glyph-name="afii10078" unicode="&#x43c;" horiz-adv-x="1408" 
 />
    <glyph glyph-name="afii10079" unicode="&#x43d;" horiz-adv-x="1131" 
 />
    <glyph glyph-name="afii10080" unicode="&#x43e;" 
 />
    <glyph glyph-name="afii10081" unicode="&#x43f;" horiz-adv-x="1109" 
 />
    <glyph glyph-name="afii10082" unicode="&#x440;" 
 />
    <glyph glyph-name="afii10083" unicode="&#x441;" horiz-adv-x="1024" 
 />
    <glyph glyph-name="afii10084" unicode="&#x442;" horiz-adv-x="938" 
 />
    <glyph glyph-name="afii10085" unicode="&#x443;" horiz-adv-x="1024" 
 />
    <glyph glyph-name="afii10086" unicode="&#x444;" horiz-adv-x="1685" 
 />
    <glyph glyph-name="afii10087" unicode="&#x445;" horiz-adv-x="1024" 
 />
    <glyph glyph-name="afii10088" unicode="&#x446;" horiz-adv-x="1173" 
 />
    <glyph glyph-name="afii10089" unicode="&#x447;" horiz-adv-x="1067" 
 />
    <glyph glyph-name="afii10090" unicode="&#x448;" horiz-adv-x="1643" 
 />
    <glyph glyph-name="afii10091" unicode="&#x449;" horiz-adv-x="1685" 
 />
    <glyph glyph-name="afii10092" unicode="&#x44a;" horiz-adv-x="1280" 
 />
    <glyph glyph-name="afii10093" unicode="&#x44b;" horiz-adv-x="1472" 
 />
    <glyph glyph-name="afii10094" unicode="&#x44c;" horiz-adv-x="1067" 
 />
    <glyph glyph-name="afii10095" unicode="&#x44d;" horiz-adv-x="1045" 
 />
    <glyph glyph-name="afii10096" unicode="&#x44e;" horiz-adv-x="1536" 
 />
    <glyph glyph-name="afii10097" unicode="&#x44f;" horiz-adv-x="1109" 
 />
    <glyph glyph-name="afii10071" unicode="&#x451;" 
 />
    <glyph glyph-name="afii10099" unicode="&#x452;" 
 />
    <glyph glyph-name="afii10100" unicode="&#x453;" horiz-adv-x="747" 
 />
    <glyph glyph-name="afii10101" unicode="&#x454;" horiz-adv-x="1045" 
 />
    <glyph glyph-name="afii10102" unicode="&#x455;" horiz-adv-x="1024" 
 />
    <glyph glyph-name="afii10103" unicode="&#x456;" horiz-adv-x="455" 
 />
    <glyph glyph-name="afii10104" unicode="&#x457;" horiz-adv-x="569" 
 />
    <glyph glyph-name="afii10105" unicode="&#x458;" horiz-adv-x="455" 
 />
    <glyph glyph-name="afii10106" unicode="&#x459;" horiz-adv-x="1856" 
 />
    <glyph glyph-name="afii10107" unicode="&#x45a;" horiz-adv-x="1664" 
 />
    <glyph glyph-name="afii10108" unicode="&#x45b;" 
 />
    <glyph glyph-name="afii10109" unicode="&#x45c;" horiz-adv-x="896" 
 />
    <glyph glyph-name="afii10110" unicode="&#x45e;" horiz-adv-x="1024" 
 />
    <glyph glyph-name="afii10193" unicode="&#x45f;" horiz-adv-x="1131" 
 />
    <glyph glyph-name="afii10050" unicode="&#x490;" horiz-adv-x="1001" 
 />
    <glyph glyph-name="afii10098" unicode="&#x491;" horiz-adv-x="842" 
 />
    <glyph glyph-name="Wgrave" unicode="&#x1e80;" horiz-adv-x="1933" 
 />
    <glyph glyph-name="wgrave" unicode="&#x1e81;" horiz-adv-x="1479" 
 />
    <glyph glyph-name="Wacute" unicode="&#x1e82;" horiz-adv-x="1933" 
 />
    <glyph glyph-name="wacute" unicode="&#x1e83;" horiz-adv-x="1479" 
 />
    <glyph glyph-name="Wdieresis" unicode="&#x1e84;" horiz-adv-x="1933" 
 />
    <glyph glyph-name="wdieresis" unicode="&#x1e85;" horiz-adv-x="1479" 
 />
    <glyph glyph-name="Ygrave" unicode="&#x1ef2;" horiz-adv-x="1366" 
 />
    <glyph glyph-name="ygrave" unicode="&#x1ef3;" horiz-adv-x="1024" 
 />
    <glyph glyph-name="afii00208" unicode="&#x2015;" horiz-adv-x="2048" 
 />
    <glyph glyph-name="underscoredbl" unicode="&#x2017;" horiz-adv-x="1131" 
 />
    <glyph glyph-name="quotereversed" unicode="&#x201b;" horiz-adv-x="455" 
 />
    <glyph glyph-name="minute" unicode="&#x2032;" horiz-adv-x="384" 
 />
    <glyph glyph-name="second" unicode="&#x2033;" horiz-adv-x="725" 
 />
    <glyph glyph-name="exclamdbl" unicode="&#x203c;" horiz-adv-x="1024" 
 />
    <glyph glyph-name="uni203E" unicode="&#x203e;" horiz-adv-x="682" 
 />
    <glyph glyph-name="uni207F" unicode="&#x207f;" horiz-adv-x="747" 
 />
    <glyph glyph-name="lira" unicode="&#x20a4;" 
 />
    <glyph glyph-name="peseta" unicode="&#x20a7;" horiz-adv-x="2240" 
 />
    <glyph glyph-name="afii61248" unicode="&#x2105;" horiz-adv-x="1813" 
 />
    <glyph glyph-name="afii61289" unicode="&#x2113;" horiz-adv-x="662" 
 />
    <glyph glyph-name="afii61352" unicode="&#x2116;" horiz-adv-x="2197" 
 />
    <glyph glyph-name="estimated" unicode="&#x212e;" horiz-adv-x="1229" 
 />
    <glyph glyph-name="oneeighth" unicode="&#x215b;" horiz-adv-x="1708" 
 />
    <glyph glyph-name="threeeighths" unicode="&#x215c;" horiz-adv-x="1708" 
 />
    <glyph glyph-name="fiveeighths" unicode="&#x215d;" horiz-adv-x="1708" 
 />
    <glyph glyph-name="seveneighths" unicode="&#x215e;" horiz-adv-x="1708" 
 />
    <glyph glyph-name="arrowleft" unicode="&#x2190;" horiz-adv-x="2048" 
 />
    <glyph glyph-name="arrowup" unicode="&#x2191;" horiz-adv-x="1024" 
 />
    <glyph glyph-name="arrowright" unicode="&#x2192;" horiz-adv-x="2048" 
 />
    <glyph glyph-name="arrowdown" unicode="&#x2193;" horiz-adv-x="1024" 
 />
    <glyph glyph-name="arrowboth" unicode="&#x2194;" horiz-adv-x="2048" 
 />
    <glyph glyph-name="arrowupdn" unicode="&#x2195;" horiz-adv-x="1024" 
 />
    <glyph glyph-name="arrowupdnbse" unicode="&#x21a8;" horiz-adv-x="1024" 
 />
    <glyph glyph-name="orthogonal" unicode="&#x221f;" horiz-adv-x="2005" 
 />
    <glyph glyph-name="intersection" unicode="&#x2229;" horiz-adv-x="1472" 
 />
    <glyph glyph-name="equivalence" unicode="&#x2261;" horiz-adv-x="1195" 
 />
    <glyph glyph-name="house" unicode="&#x2302;" horiz-adv-x="1237" 
 />
    <glyph glyph-name="revlogicalnot" unicode="&#x2310;" horiz-adv-x="1196" 
 />
    <glyph glyph-name="integraltp" unicode="&#x2320;" horiz-adv-x="1237" 
 />
    <glyph glyph-name="integralbt" unicode="&#x2321;" horiz-adv-x="1237" 
 />
    <glyph glyph-name="SF100000" unicode="&#x2500;" horiz-adv-x="1451" 
 />
    <glyph glyph-name="SF110000" unicode="&#x2502;" horiz-adv-x="1280" 
 />
    <glyph glyph-name="SF010000" unicode="&#x250c;" horiz-adv-x="1451" 
 />
    <glyph glyph-name="SF030000" unicode="&#x2510;" horiz-adv-x="1451" 
 />
    <glyph glyph-name="SF020000" unicode="&#x2514;" horiz-adv-x="1451" 
 />
    <glyph glyph-name="SF040000" unicode="&#x2518;" horiz-adv-x="1451" 
 />
    <glyph glyph-name="SF080000" unicode="&#x251c;" horiz-adv-x="1451" 
 />
    <glyph glyph-name="SF090000" unicode="&#x2524;" horiz-adv-x="1451" 
 />
    <glyph glyph-name="SF060000" unicode="&#x252c;" horiz-adv-x="1451" 
 />
    <glyph glyph-name="SF070000" unicode="&#x2534;" horiz-adv-x="1451" 
 />
    <glyph glyph-name="SF050000" unicode="&#x253c;" horiz-adv-x="1451" 
 />
    <glyph glyph-name="SF430000" unicode="&#x2550;" horiz-adv-x="1451" 
 />
    <glyph glyph-name="SF240000" unicode="&#x2551;" horiz-adv-x="1451" 
 />
    <glyph glyph-name="SF510000" unicode="&#x2552;" horiz-adv-x="1451" 
 />
    <glyph glyph-name="SF520000" unicode="&#x2553;" horiz-adv-x="1451" 
 />
    <glyph glyph-name="SF390000" unicode="&#x2554;" horiz-adv-x="1451" 
 />
    <glyph glyph-name="SF220000" unicode="&#x2555;" horiz-adv-x="1451" 
 />
    <glyph glyph-name="SF210000" unicode="&#x2556;" horiz-adv-x="1451" 
 />
    <glyph glyph-name="SF250000" unicode="&#x2557;" horiz-adv-x="1451" 
 />
    <glyph glyph-name="SF500000" unicode="&#x2558;" horiz-adv-x="1451" 
 />
    <glyph glyph-name="SF490000" unicode="&#x2559;" horiz-adv-x="1451" 
 />
    <glyph glyph-name="SF380000" unicode="&#x255a;" horiz-adv-x="1451" 
 />
    <glyph glyph-name="SF280000" unicode="&#x255b;" horiz-adv-x="1451" 
 />
    <glyph glyph-name="SF270000" unicode="&#x255c;" horiz-adv-x="1451" 
 />
    <glyph glyph-name="SF260000" unicode="&#x255d;" horiz-adv-x="1451" 
 />
    <glyph glyph-name="SF360000" unicode="&#x255e;" horiz-adv-x="1451" 
 />
    <glyph glyph-name="SF370000" unicode="&#x255f;" horiz-adv-x="1451" 
 />
    <glyph glyph-name="SF420000" unicode="&#x2560;" horiz-adv-x="1451" 
 />
    <glyph glyph-name="SF190000" unicode="&#x2561;" horiz-adv-x="1451" 
 />
    <glyph glyph-name="SF200000" unicode="&#x2562;" horiz-adv-x="1451" 
 />
    <glyph glyph-name="SF230000" unicode="&#x2563;" horiz-adv-x="1451" 
 />
    <glyph glyph-name="SF470000" unicode="&#x2564;" horiz-adv-x="1451" 
 />
    <glyph glyph-name="SF480000" unicode="&#x2565;" horiz-adv-x="1451" 
 />
    <glyph glyph-name="SF410000" unicode="&#x2566;" horiz-adv-x="1451" 
 />
    <glyph glyph-name="SF450000" unicode="&#x2567;" horiz-adv-x="1451" 
 />
    <glyph glyph-name="SF460000" unicode="&#x2568;" horiz-adv-x="1451" 
 />
    <glyph glyph-name="SF400000" unicode="&#x2569;" horiz-adv-x="1451" 
 />
    <glyph glyph-name="SF540000" unicode="&#x256a;" horiz-adv-x="1451" 
 />
    <glyph glyph-name="SF530000" unicode="&#x256b;" horiz-adv-x="1451" 
 />
    <glyph glyph-name="SF440000" unicode="&#x256c;" horiz-adv-x="1451" 
 />
    <glyph glyph-name="upblock" unicode="&#x2580;" horiz-adv-x="1451" 
 />
    <glyph glyph-name="dnblock" unicode="&#x2584;" horiz-adv-x="1451" 
 />
    <glyph glyph-name="block" unicode="&#x2588;" horiz-adv-x="1451" 
 />
    <glyph glyph-name="lfblock" unicode="&#x258c;" horiz-adv-x="1451" 
 />
    <glyph glyph-name="rtblock" unicode="&#x2590;" horiz-adv-x="1451" 
 />
    <glyph glyph-name="ltshade" unicode="&#x2591;" horiz-adv-x="1451" 
 />
    <glyph glyph-name="shade" unicode="&#x2592;" horiz-adv-x="1451" 
 />
    <glyph glyph-name="dkshade" unicode="&#x2593;" horiz-adv-x="1493" 
 />
    <glyph glyph-name="filledbox" unicode="&#x25a0;" horiz-adv-x="1237" 
 />
    <glyph glyph-name="H22073" unicode="&#x25a1;" horiz-adv-x="1237" 
 />
    <glyph glyph-name="H18543" unicode="&#x25aa;" horiz-adv-x="726" 
 />
    <glyph glyph-name="H18551" unicode="&#x25ab;" horiz-adv-x="726" 
 />
    <glyph glyph-name="filledrect" unicode="&#x25ac;" horiz-adv-x="2048" 
 />
    <glyph glyph-name="triagup" unicode="&#x25b2;" horiz-adv-x="2027" 
 />
    <glyph glyph-name="triagrt" unicode="&#x25ba;" horiz-adv-x="2027" 
 />
    <glyph glyph-name="triagdn" unicode="&#x25bc;" horiz-adv-x="2027" 
 />
    <glyph glyph-name="triaglf" unicode="&#x25c4;" horiz-adv-x="2027" 
 />
    <glyph glyph-name="circle" unicode="&#x25cb;" horiz-adv-x="1237" 
 />
    <glyph glyph-name="H18533" unicode="&#x25cf;" horiz-adv-x="1237" 
 />
    <glyph glyph-name="invbullet" unicode="&#x25d8;" horiz-adv-x="1237" 
 />
    <glyph glyph-name="invcircle" unicode="&#x25d9;" horiz-adv-x="1237" 
 />
    <glyph glyph-name="openbullet" unicode="&#x25e6;" horiz-adv-x="726" 
 />
    <glyph glyph-name="smileface" unicode="&#x263a;" horiz-adv-x="2091" 
 />
    <glyph glyph-name="invsmileface" unicode="&#x263b;" horiz-adv-x="2155" 
 />
    <glyph glyph-name="sun" unicode="&#x263c;" horiz-adv-x="1877" 
 />
    <glyph glyph-name="female" unicode="&#x2640;" horiz-adv-x="1536" 
 />
    <glyph glyph-name="male" unicode="&#x2642;" horiz-adv-x="1536" 
 />
    <glyph glyph-name="spade" unicode="&#x2660;" horiz-adv-x="1088" 
 />
    <glyph glyph-name="club" unicode="&#x2663;" horiz-adv-x="1344" 
 />
    <glyph glyph-name="heart" unicode="&#x2665;" horiz-adv-x="1216" 
 />
    <glyph glyph-name="diamond" unicode="&#x2666;" horiz-adv-x="1045" 
 />
    <glyph glyph-name="musicalnote" unicode="&#x266a;" horiz-adv-x="1024" 
 />
    <glyph glyph-name="musicalnotedbl" unicode="&#x266b;" horiz-adv-x="1536" 
 />
    <glyph glyph-name="uniF004" unicode="&#xf004;" horiz-adv-x="682" 
 />
    <glyph glyph-name="uniF005" unicode="&#xf005;" horiz-adv-x="682" 
 />
  </font>
</defs>
</svg>
